/* XPM */
static char * collectible_xpm[] = {
"32 32 6 1",
" 	c None",
".	c #000000",
"+	c #00C3FF",
"@	c #DFA798",
"#	c #D99A91",
"$	c #FFFFFF",
"                                ",
"                                ",
"                                ",
"                                ",
"                                ",
"                                ",
"                                ",
"          ....   ......         ",
"      ....++++. .++++++....     ",
"   ...+++++++++.+++++++++++..   ",
"  .++++++++++++++++++++++++++.  ",
"  .+++++++++++++++++++++++++++. ",
" .@@@@@@@@@@@@@@@@@@@@@@@@@@@@. ",
" .@@@@@@@@@@@@@@@@@@@@@@@@@@@@@.",
".@@@.@@.@..#.@@.@@.@..@@@@@@@@@.",
".$$$..$.$.$.....$.$$$$.$$.$$$$$.",
".$$$$...$.$..$..$.......$..$$$$.",
".@@@@@@@@@@@@@@@@@@@@@@@@@@@@@@.",
".@@@@@@@@@@@@@@@@@@@@@@@@@@@@@. ",
" .@@@@@@@@@@@@@@@@@@@@@@@@@@@@. ",
"  .++++++++++++++++++++++++++.  ",
"   ..++++++++++..+++++++++...   ",
"     ....+++++.  .++++....      ",
"         ......  .....          ",
"                                ",
"                                ",
"                                ",
"                                ",
"                                ",
"                                ",
"                                ",
"                                "};
