/* XPM */
static char * collectible_xpm[] = {
"32 32 7 1",
" 	c None",
".	c #000000",
"+	c #6ABE30",
"@	c #37946E",
"#	c #DE2A2A",
"$	c #8A0F36",
"%	c #FF5F42",
"                .....           ",
"                .....           ",
"                .....           ",
"        ........+++++..         ",
"        ........+++++..         ",
"      ..+++++...@@@@@++...      ",
"      ..+++++...@@@@@++...      ",
"      ..+++++...@@@@@++...      ",
"   ...@@...##+++++###..@@@..    ",
"   ...@@...##+++++###..@@@..    ",
"      ..###$$#####$$$##...      ",
"      ..###$$#####$$$##...      ",
"      ..###$$#####$$$##...      ",
"   ...$$%%%%%##########$$$..    ",
"   ...$$%%%%%##########$$$..    ",
"   ...%%########%%#####%%%..    ",
"   ...%%########%%#####%%%..    ",
"   ...$$###%%###$$#####$$$..    ",
"   ...$$###%%###$$#####$$$..    ",
"   ...$$###%%###$$#####$$$..    ",
"   ...##$$$$$#####$$$$$###..    ",
"   ...##$$$$$#####$$$$$###..    ",
"      ..###$$$$$$$$$$##...      ",
"      ..###$$$$$$$$$$##...      ",
"      ..###$$$$$$$$$$##...      ",
"        ...##$$$$$###..         ",
"        ...##$$$$$###..         ",
"           ..#####...           ",
"           ..#####...           ",
"           ..#####...           ",
"             .....              ",
"             .....              "};
