/* XPM */
static char * debug_xpm[] = {
"32 32 2 1",
" 	c #000000",
".	c #FF00EC",
"                ................",
"                ................",
"                ................",
"                ................",
"                ................",
"                ................",
"                ................",
"                ................",
"                ................",
"                ................",
"                ................",
"                ................",
"                ................",
"                ................",
"                ................",
"                ................",
"................                ",
"................                ",
"................                ",
"................                ",
"................                ",
"................                ",
"................                ",
"................                ",
"................                ",
"................                ",
"................                ",
"................                ",
"................                ",
"................                ",
"................                ",
"................                "};
