/* XPM */
/*note : made by ybeurriot. I hate it. It's good and cursed. fuck. */
static char * enemy_xpm[] = {
"32 32 4 1",
" 	c None",
".	c #FF0000",
"+	c #000000",
"@	c #A40000",
"            ........            ",
"         ...++++++++....        ",
"        .+++++++++++++++..      ",
"       .++++++++++++++++++.     ",
"      .++++++++++++++++++++.    ",
"     .+++++++++++++++++++++.    ",
"    .+++++++++++++++++++++++.   ",
"    .+++++++++++++++++++++++.   ",
"   .+++++++++++++++++++++++++.  ",
"  .++++++++++++++++++++++++++.  ",
"  .++++++++++++++++++++++++++.  ",
" .+++++++++++++++++++++++++++.  ",
" .+++++++++++++++++++++++++++.  ",
".@+++++....++++++++....++++++@. ",
".@+++++@@@@++++++++@@@@++++++@. ",
".@+++++++++++++++++++++++++++@. ",
".@+++++++++++++++++++++++++++@. ",
".@+++++++++++++++++++++++++++@. ",
".@+++++++++++++++++++++++++++@. ",
".@++++++.++++++++++++.+++++++@. ",
".@++++++.+++++.++++++.+++++++@. ",
" .@+++++@.+++.@.++++.@+++++++@. ",
" .@++++++@...@+@....@++++++++@. ",
" .@+++++++@@@+++@@@@+++++++++@. ",
"  .@+++++++++++++++++++++++++@. ",
"  .@+++++++++++++++++++++++++@. ",
"  .@++++++++++++++++++++++++@.  ",
"   .@+++++++++++++++++++++++@.  ",
"   .@+++++++++++++++++++++@@.   ",
"    .@+++++++++++++++++@@@..    ",
"     .@@@@@@@@@@@@@@@@@...      ",
"      .................         "};
