/* XPM */
static char * exit_xpm[] = {
"32 32 156 2",
"  	c None",
". 	c #A65C03",
"+ 	c #AC640B",
"@ 	c #CD6100",
"# 	c #FFD94F",
"$ 	c #FFDA51",
"% 	c #C25B00",
"& 	c #B86600",
"* 	c #FFE842",
"= 	c #FFEA45",
"- 	c #B26600",
"; 	c #A56900",
"> 	c #FFDD52",
", 	c #FFEA54",
"' 	c #FEE955",
") 	c #FFE45F",
"! 	c #A46909",
"~ 	c #AD5B05",
"{ 	c #FFE151",
"] 	c #FBE554",
"^ 	c #FFFFB6",
"/ 	c #FFFFB1",
"( 	c #FCE055",
"_ 	c #FFE25C",
": 	c #B45F11",
"< 	c #BD4800",
"[ 	c #CC6100",
"} 	c #BE5900",
"| 	c #B75301",
"1 	c #AF6200",
"2 	c #FFE954",
"3 	c #ECE964",
"4 	c #FFFFD4",
"5 	c #FFFFD0",
"6 	c #F6E96B",
"7 	c #FFE858",
"8 	c #B36200",
"9 	c #BD5600",
"0 	c #BF5C00",
"a 	c #B04F00",
"b 	c #BD5912",
"c 	c #C76200",
"d 	c #FFDE50",
"e 	c #FFE052",
"f 	c #FFE077",
"g 	c #F7DC78",
"h 	c #E5E165",
"i 	c #EDF389",
"j 	c #FFFFD5",
"k 	c #FFFFDA",
"l 	c #F0E784",
"m 	c #FBEA73",
"n 	c #FFE481",
"o 	c #FFE277",
"p 	c #FFE354",
"q 	c #FFDF56",
"r 	c #B45E03",
"s 	c #AB5E06",
"t 	c #FFE34F",
"u 	c #F9E848",
"v 	c #FFFF8C",
"w 	c #FFFFA4",
"x 	c #FFFFAD",
"y 	c #FFFFC3",
"z 	c #FFFFE4",
"A 	c #FFFFC9",
"B 	c #FFFFAB",
"C 	c #FFFF91",
"D 	c #FFEC56",
"E 	c #FFE45C",
"F 	c #9B5703",
"G 	c #A06E00",
"H 	c #FFE555",
"I 	c #FDE65E",
"J 	c #FFFFA2",
"K 	c #FFFFD9",
"L 	c #FFFFF3",
"M 	c #FFFDF5",
"N 	c #FFFFF9",
"O 	c #FFFEF0",
"P 	c #FFFFA5",
"Q 	c #F6E464",
"R 	c #FFDB5E",
"S 	c #A86606",
"T 	c #A66000",
"U 	c #FFE75C",
"V 	c #FDEA7C",
"W 	c #FFFDD7",
"X 	c #FFFCEF",
"Y 	c #FFFFDD",
"Z 	c #FFFFDF",
"` 	c #FFFFF7",
" .	c #FFFFDC",
"..	c #F7F284",
"+.	c #FFE863",
"@.	c #AF6100",
"#.	c #A77300",
"$.	c #FAE161",
"%.	c #FFFFBE",
"&.	c #FFFFC0",
"*.	c #F0EC77",
"=.	c #EAE973",
"-.	c #FFFFC6",
";.	c #FFFFC4",
">.	c #FFEE6D",
",.	c #9E6C00",
"'.	c #C56000",
").	c #FFDC48",
"!.	c #FFEC57",
"~.	c #F4E57A",
"{.	c #FFFF9D",
"].	c #FFF263",
"^.	c #FFE95A",
"/.	c #F3E97D",
"(.	c #FFE754",
"_.	c #FFDE4C",
":.	c #BD5900",
"<.	c #AF5F00",
"[.	c #FFED4A",
"}.	c #FEED41",
"|.	c #FCE751",
"1.	c #FFE15F",
"2.	c #AE6300",
"3.	c #AE6200",
"4.	c #FFE661",
"5.	c #FFE750",
"6.	c #FFF24A",
"7.	c #FFE447",
"8.	c #B36000",
"9.	c #A35F0B",
"0.	c #FFD75A",
"a.	c #FFDF44",
"b.	c #FFE742",
"c.	c #FFDC45",
"d.	c #A76900",
"e.	c #AB6400",
"f.	c #FFDE46",
"g.	c #FFE543",
"h.	c #FFE048",
"i.	c #FFD35A",
"j.	c #AC5F15",
"k.	c #A25E0C",
"l.	c #FFD664",
"m.	c #FFD454",
"n.	c #B15500",
"o.	c #C46000",
"p.	c #B86A00",
"q.	c #FFD450",
"r.	c #FFD866",
"s.	c #AA6216",
"t.	c #956125",
"u.	c #A05B0C",
"v.	c #A86410",
"w.	c #A96710",
"x.	c #A86316",
"y.	c #97622E",
"                            . . + +                             ",
"                            . . + +                             ",
"                        @ @ # # $ $ % %                         ",
"                        @ @ # # $ $ % %                         ",
"                        & & * * = = - -                         ",
"                        & & * * = = - -                         ",
"                    ; ; > > , , ' ' ) ) ! !                     ",
"                    ; ; > > , , ' ' ) ) ! !                     ",
"                ~ ~ { { ] ] ^ ^ / / ( ( _ _ : :                 ",
"                ~ ~ { { ] ] ^ ^ / / ( ( _ _ : :                 ",
"< < [ [ } } | | 1 1 2 2 3 3 4 4 5 5 6 6 7 7 8 8 9 9 0 0 a a b b ",
"< < [ [ } } | | 1 1 2 2 3 3 4 4 5 5 6 6 7 7 8 8 9 9 0 0 a a b b ",
"c c d d e e f f g g h h i i j j k k l l m m n n o o p p q q r r ",
"c c d d e e f f g g h h i i j j k k l l m m n n o o p p q q r r ",
"s s t t u u v v w w x x y y z z z z A A B B x x C C D D E E F F ",
"s s t t u u v v w w x x y y z z z z A A B B x x C C D D E E F F ",
"    G G H H I I J J K K L L M M N N O O K K P P Q Q R R S S     ",
"    G G H H I I J J K K L L M M N N O O K K P P Q Q R R S S     ",
"        T T U U V V W W X X Y Y Z Z ` `  . .....+.+.@.@.        ",
"        T T U U V V W W X X Y Y Z Z ` `  . .....+.+.@.@.        ",
"            #.#.$.$.%.%.&.&.*.*.=.=.-.-.;.;.>.>.,.,.            ",
"            #.#.$.$.%.%.&.&.*.*.=.=.-.-.;.;.>.>.,.,.            ",
"        '.'.).).!.!.~.~.{.{.].].^.^.J J /./.(.(._._.:.:.        ",
"        '.'.).).!.!.~.~.{.{.].].^.^.J J /./.(.(._._.:.:.        ",
"        <.<.[.[.}.}.|.|.1.1.2.2.3.3.4.4.5.5.6.6.7.7.8.8.        ",
"        <.<.[.[.}.}.|.|.1.1.2.2.3.3.4.4.5.5.6.6.7.7.8.8.        ",
"    9.9.0.0.a.a.b.b.c.c.d.d.        e.e.f.f.g.g.h.h.i.i.j.j.    ",
"    9.9.0.0.a.a.b.b.c.c.d.d.        e.e.f.f.g.g.h.h.i.i.j.j.    ",
"    k.k.l.l.m.m.<.<.n.n.                o.o.p.p.q.q.r.r.s.s.    ",
"    k.k.l.l.m.m.<.<.n.n.                o.o.p.p.q.q.r.r.s.s.    ",
"    t.t.u.u.v.v.                                w.w.x.x.y.y.    ",
"    t.t.u.u.v.v.                                w.w.x.x.y.y.    "};
