/* XPM */
static char * ground_xpm[] = {
"32 32 247 2",
"  	c #49638A",
". 	c #3D5A87",
"+ 	c #355688",
"@ 	c #385488",
"# 	c #485C85",
"$ 	c #4D5F87",
"% 	c #08214B",
"& 	c #456090",
"* 	c #3E5791",
"= 	c #3A5794",
"- 	c #355994",
"; 	c #3B5A8B",
"> 	c #4A597B",
", 	c #11162F",
"' 	c #1C1A31",
") 	c #232341",
"! 	c #08204F",
"~ 	c #0E2657",
"{ 	c #3D5284",
"] 	c #3C5080",
"^ 	c #11234F",
"/ 	c #102451",
"( 	c #3F5C94",
"_ 	c #335695",
": 	c #365AA0",
"< 	c #6E95DA",
"[ 	c #6D97D8",
"} 	c #375C94",
"| 	c #435A82",
"1 	c #091432",
"2 	c #1A1B31",
"3 	c #181B35",
"4 	c #3C5B97",
"5 	c #3B548D",
"6 	c #1A2252",
"7 	c #1C2554",
"8 	c #425D99",
"9 	c #395EA3",
"0 	c #6A95DD",
"a 	c #6E9BE5",
"b 	c #315DA0",
"c 	c #31589A",
"d 	c #325898",
"e 	c #395B96",
"f 	c #3E5990",
"g 	c #4A5F88",
"h 	c #191E36",
"i 	c #161E34",
"j 	c #3F5B98",
"k 	c #40558D",
"l 	c #212350",
"m 	c #4A4D7C",
"n 	c #3C589A",
"o 	c #6A94E1",
"p 	c #6E98E5",
"q 	c #335EA8",
"r 	c #355D9D",
"s 	c #395C9B",
"t 	c #395A9A",
"u 	c #3A5B99",
"v 	c #3D5787",
"w 	c #0B1730",
"x 	c #4E5B70",
"y 	c #475383",
"z 	c #131B4B",
"A 	c #191B46",
"B 	c #333B6A",
"C 	c #7993D3",
"D 	c #7395DB",
"E 	c #3B5BA0",
"F 	c #37579A",
"G 	c #315898",
"H 	c #345C9C",
"I 	c #1F4283",
"J 	c #1D3F81",
"K 	c #365B9A",
"L 	c #3C5D8F",
"M 	c #0D1F3D",
"N 	c #48546B",
"O 	c #162252",
"P 	c #101B47",
"Q 	c #1C214A",
"R 	c #374170",
"S 	c #2A437D",
"T 	c #203F7D",
"U 	c #405B98",
"V 	c #3B5E9D",
"W 	c #32599C",
"X 	c #1E4588",
"Y 	c #184080",
"Z 	c #1C447F",
"` 	c #3A5D91",
" .	c #0B2248",
"..	c #0B1B38",
"+.	c #3F5A93",
"@.	c #3F598C",
"#.	c #061239",
"$.	c #313D64",
"%.	c #233D70",
"&.	c #1A3A71",
"*.	c #28467C",
"=.	c #3A5792",
"-.	c #365698",
";.	c #375BA1",
">.	c #2F5A9E",
",.	c #174480",
"'.	c #20477C",
").	c #244877",
"!.	c #395683",
"~.	c #0A2149",
"{.	c #365794",
"].	c #39568E",
"^.	c #081B42",
"/.	c #07183C",
"(.	c #3E5989",
"_.	c #1F3F74",
":.	c #203F79",
"<.	c #224685",
"[.	c #7599E1",
"}.	c #7DA8F0",
"|.	c #6A9DDE",
"1.	c #295B95",
"2.	c #194576",
"3.	c #1D4371",
"4.	c #395F8D",
"5.	c #385785",
"6.	c #395393",
"7.	c #3F5892",
"8.	c #415A82",
"9.	c #092348",
"0.	c #415E8D",
"a.	c #3B5A94",
"b.	c #214689",
"c.	c #6C97E1",
"d.	c #6898E7",
"e.	c #6399E4",
"f.	c #689DE0",
"g.	c #2C609A",
"h.	c #316197",
"i.	c #336292",
"j.	c #2B5D87",
"k.	c #305E89",
"l.	c #3F5999",
"m.	c #435A92",
"n.	c #475F82",
"o.	c #0A2543",
"p.	c #294470",
"q.	c #3E5E95",
"r.	c #6791DC",
"s.	c #6896E6",
"t.	c #6192DE",
"u.	c #3265A6",
"v.	c #30639F",
"w.	c #2F62A0",
"x.	c #2B5F9B",
"y.	c #346A9C",
"z.	c #2B5C8D",
"A.	c #395995",
"B.	c #3C5688",
"C.	c #11233D",
"D.	c #16273C",
"E.	c #041F41",
"F.	c #234270",
"G.	c #1F417A",
"H.	c #214486",
"I.	c #224085",
"J.	c #1F4187",
"K.	c #194382",
"L.	c #2D5D9F",
"M.	c #6A9AEC",
"N.	c #74A2E7",
"O.	c #3C66A3",
"P.	c #405E91",
"Q.	c #435984",
"R.	c #0B192F",
"S.	c #192638",
"T.	c #0C1F38",
"U.	c #2D4364",
"V.	c #27406E",
"W.	c #3F5990",
"X.	c #3C5490",
"Y.	c #233D7D",
"Z.	c #1C3D7B",
"`.	c #7095D6",
" +	c #7298E2",
".+	c #7196E3",
"++	c #24498C",
"@+	c #1F3D7C",
"#+	c #3C517A",
"$+	c #0F1C3C",
"%+	c #111C38",
"&+	c #151F34",
"*+	c #232736",
"=+	c #101427",
"-+	c #333E5C",
";+	c #344770",
">+	c #415E8F",
",+	c #37578E",
"'+	c #253D77",
")+	c #22376B",
"!+	c #2F436F",
"~+	c #293E67",
"{+	c #273C6E",
"]+	c #2D3E6F",
"^+	c #14254A",
"/+	c #0D193C",
"(+	c #44547C",
"_+	c #4A597D",
":+	c #171F36",
"<+	c #222539",
"[+	c #1D1F3C",
"}+	c #101A3D",
"|+	c #041A45",
"1+	c #22396A",
"2+	c #2D3E71",
"3+	c #343F6E",
"4+	c #07132F",
"5+	c #0C182F",
"6+	c #182749",
"7+	c #162247",
"8+	c #19274E",
"9+	c #425683",
"0+	c #445D96",
"a+	c #3F5785",
"b+	c #49597F",
"c+	c #171A3D",
"d+	c #1D1E42",
"e+	c #151A41",
"f+	c #1C2550",
"g+	c #1B244F",
"h+	c #1A2541",
"i+	c #1B283D",
"j+	c #142038",
"k+	c #1C2844",
"l+	c #49557C",
"m+	c #435689",
"n+	c #32528A",
"o+	c #4F567D",
"p+	c #21244A",
"q+	c #1B214C",
"r+	c #4C5685",
"s+	c #4B598D",
"t+	c #48598A",
"u+	c #495C81",
"v+	c #0A1F3C",
"w+	c #182D48",
"x+	c #071B39",
"    . . + + @ @ # # $ $ % % & & * * = = - - ; ; > > , , ' ' ) ) ",
"    . . + + @ @ # # $ $ % % & & * * = = - - ; ; > > , , ' ' ) ) ",
"! ! ~ ~ { { ] ] ^ ^ / / ( ( _ _ : : < < [ [ } } | | 1 1 2 2 3 3 ",
"! ! ~ ~ { { ] ] ^ ^ / / ( ( _ _ : : < < [ [ } } | | 1 1 2 2 3 3 ",
"4 4 5 5 6 6 7 7 8 8 9 9 0 0 a a b b c c d d e e f f g g h h i i ",
"4 4 5 5 6 6 7 7 8 8 9 9 0 0 a a b b c c d d e e f f g g h h i i ",
"j j k k l l m m n n o o p p q q b b r r s s t t u u v v w w x x ",
"j j k k l l m m n n o o p p q q b b r r s s t t u u v v w w x x ",
"y y z z A A B B C C D D E E F F G G H H I I J J K K L L M M N N ",
"y y z z A A B B C C D D E E F F G G H H I I J J K K L L M M N N ",
"O O P P Q Q R R S S T T U U j j V V W W X X Y Y Z Z ` `  . .....",
"O O P P Q Q R R S S T T U U j j V V W W X X Y Y Z Z ` `  . .....",
"+.+.@.@.#.#.$.$.%.%.&.&.*.*.=.=.-.-.;.;.>.>.,.,.'.'.).).!.!.~.~.",
"+.+.@.@.#.#.$.$.%.%.&.&.*.*.=.=.-.-.;.;.>.>.,.,.'.'.).).!.!.~.~.",
"{.{.].].^.^././.(.(._._.:.:.<.<.[.[.}.}.|.|.1.1.2.2.3.3.4.4.5.5.",
"{.{.].].^.^././.(.(._._.:.:.<.<.[.[.}.}.|.|.1.1.2.2.3.3.4.4.5.5.",
"6.6.7.7.8.8.9.9.0.0.a.a.b.b.c.c.d.d.e.e.f.f.g.g.h.h.i.i.j.j.k.k.",
"6.6.7.7.8.8.9.9.0.0.a.a.b.b.c.c.d.d.e.e.f.f.g.g.h.h.i.i.j.j.k.k.",
"l.l.m.m.n.n.o.o.p.p.q.q.b.b.r.r.s.s.t.t.u.u.v.v.w.w.x.x.y.y.z.z.",
"l.l.m.m.n.n.o.o.p.p.q.q.b.b.r.r.s.s.t.t.u.u.v.v.w.w.x.x.y.y.z.z.",
"A.A.B.B.C.C.D.D.E.E.F.F.G.G.H.H.I.I.J.J.K.K.L.L.M.M.M.M.N.N.O.O.",
"A.A.B.B.C.C.D.D.E.E.F.F.G.G.H.H.I.I.J.J.K.K.L.L.M.M.M.M.N.N.O.O.",
"P.P.Q.Q.R.R.S.S.T.T.U.U.V.V.W.W.X.X.Y.Y.Z.Z.`.`. + +.+.+++++@+@+",
"P.P.Q.Q.R.R.S.S.T.T.U.U.V.V.W.W.X.X.Y.Y.Z.Z.`.`. + +.+.+++++@+@+",
"#+#+$+$+%+%+&+&+*+*+=+=+-+-+;+;+>+>+,+,+'+'+)+)+!+!+~+~+{+{+]+]+",
"#+#+$+$+%+%+&+&+*+*+=+=+-+-+;+;+>+>+,+,+'+'+)+)+!+!+~+~+{+{+]+]+",
"^+^+/+/+(+(+_+_+:+:+<+<+[+[+}+}+|+|+1+1+2+2+3+3+4+4+5+5+6+6+7+7+",
"^+^+/+/+(+(+_+_+:+:+<+<+[+[+}+}+|+|+1+1+2+2+3+3+4+4+5+5+6+6+7+7+",
"8+8+9+9+0+0+8 8 a+a+b+b+c+c+d+d+e+e+f+f+z z g+g+h+h+i+i+j+j+k+k+",
"8+8+9+9+0+0+8 8 a+a+b+b+c+c+d+d+e+e+f+f+z z g+g+h+h+i+i+j+j+k+k+",
"l+l+m+m+n n E E n+n+a+a+o+o+p+p+q+q+r+r+s+s+t+t+u+u+v+v+w+w+x+x+",
"l+l+m+m+n n E E n+n+a+a+o+o+p+p+q+q+r+r+s+s+t+t+u+u+v+v+w+w+x+x+"};
