/* XPM */
static char * numbers_xpm[] = {
"320 32 4 1",
" 	c None",
".	c #000000",
"+	c #FFFFFF",
"@	c #FEFEFE",
"                                                                                                                                                                                                                                                                                                                                ",
"                                                                                                                                                                                                                                                                                                                                ",
"                                                                                                                                                                                                                                                                                                                                ",
"                                                                                                                                                                                                                                                                                                                                ",
"              ....                         ...........                     .........                               .....                 ..............                       .........                  .............                      .........                      .........                      ...........           ",
"             .+++@.                       .+++++++++++.                   .+++++++++.                             .++++@.               .+++++++++++++@.                     .++++++++@.                .+++++++++++++.                    .+++++++++.                    .+++++++++.                     .+++++++++.           ",
"             .+++@.                      ..+++++++++++..                  .+++++++++.                             .++++@.               .+++++++++++++@.                     .++++++++@.                .+++++++++++++.                    .+++++++++.                    .+++++++++.                     .+++++++++.           ",
"         .....+++@.                     .+@@++@+++++++@+.                ..++.....++...                         ...++++@.               .++++..........                    ..@+........                  .........++++.                  ...++.....++...                ...++.....++...                 ...++.....++...         ",
"        .++++++++@.                     .@++++.....++++@.               .++++.   .++++.                         .++++++@.               .++++.                            .++++.                                 .++++.                 .@++++.   .++++@.               .++++.   .++++@.                .++++.   .++++.         ",
"        .++++++++@.                     .@++++.   .++++@.               .++++.   .++++.                        ..++++++@.               .++++.                           ..@@@@.                                 .++++.                 .@++++.   .++++@.               .++++.   .++++@.                .++++.  ..++++.         ",
"         ....@+++@.                     .@++++.   .++++@.               .++++.   .++++.                       .++++++++@.               .++++.                          .++++..                                  .++++.                 .@++++.   .++++@.               .++++.   .++++@.                .++++. .++++++.         ",
"            .@+++@.                     .@++++.   .++++@.               .++++.   .++++.                     ...++++++++@.               .++++.                          .++++.                                   .++++.                 .@++++.   .++++@.               .++++.   .++++@.                .++++. .++++++.         ",
"            .@+++@.                      .....    .++++@.                ....    .++++.                    .++++...++++@.               .++++.                          .++++.                                 ...++..                  .@++++.   .++++@.               .++++.   .++++@.                .++++. .++++++.         ",
"            .@+++@.                               .++++@.                        .++++.                    .++++. .++++@.               .++++.                          .++++.                                 .++++.                   .@++++.   .++++@.               .++++.   .++++@.                .++++. .++++++.         ",
"            .@+++@.                             ...++++@.                    .....++++.                  ...++@@. .++++@.               .++++.......                    .++++.......                           .++++.                   .@++++.....++++@.               .++++.....++++@.                .++++...++++++.         ",
"            .@+++@.                            .++++++..                    .@++++++..                  .@++++... .++++@.               .+++++++++++.                   .+++++++++++.                          .++++.                    ...+++++++++...                ...+++++++++++@.                .+++++++++++++.         ",
"            .@+++@.                           ..++++++.                     .@++++++.                   .@++++.   .++++@.               .+++++++++++.                   .+++++++++++.                          .++++.                    ...+++++++++...                  .+++++++++++@.                .+++++++++++++.         ",
"            .@+++@.                          .@@@+@++.                       .....++..                  .@++++.   .++++@.                .........++..                  .++++.....++..                       ..@+@..                    .@++++.....++++@.                 ........++++@.                .++++++...++++.         ",
"            .@+++@.                          .@+++@..                            .++++.                 .@++++.   .++++@.                        .++++.                 .++++.   .++++.                      .+++@.                     .@++++.   .++++@.                        .++++@.                .++++++. .++++.         ",
"            .@+++@.                        ...@+@@+.                     ....    .++++.                 .@++++.....++++@.                ....    .++++.                 .++++.   .++++.                      .+++@.                     .@++++.   .++++@.                        .++++@.                .++++++. .++++.         ",
"            .@+++@.                        .++++@..                     .++++.   .++++.                 .@+++++++++++++@.               .++++.   .++++.                 .++++.   .++++.                      .+++@.                     .@++++.   .++++@.                        .++++@.                .++++++. .++++.         ",
"            .@+++@.                       ..++++@.                      .++++.   .++++.                 .@+++++++++++++@.               .++++.   .++++.                 .++++.   .++++.                      .+++@.                     .@++++.   .++++@.                      ...++++@.                .++++++. .++++.         ",
"            .@+++@.                      .@@++...                       .++++.   .++++.                  ..........++++@.               .++++.   .++++.                 .++++.   .++++.                      .+++@.                     .@++++.   .++++@.                      .@+++...                 .++++... .++++.         ",
"            .@+++@.                      .++++.                         .++++.   .++++.                           .++++@.               .++++.   .++++.                 .++++.   .++++.                      .+++@.                     .@++++.   .++++@.                  .....++++.                   .++++.   .++++.         ",
"         ....@+++@....                   .++++.........                  ..++.....++..                            .++++@.               ...++.....++...                  ..++.....++..                       .+++@.                      ...++.....++...                  .++++@+@...                   ...++.....++...         ",
"        .+++++++++++++.                  .+++++++++++++.                  .+++++++++.                             .++++@.                 .+++++++++.                     .+++++++++.                        .+++@.                        .+++++++++.                    .++++++@.                       .+++++++++.           ",
"        .+++++++++++++.                  .+++++++++++++.                  .+++++++++.                             .++++@.                 .+++++++++.                     .+++++++++.                        .+++@.                        .+++++++++.                    .++++++@.                       ...........           ",
"         .............                    .............                    .........                               .....                   .........                       .........                          ....                          .........                      .......                                              ",
"                                                                                                                                                                                                                                                                                                                                ",
"                                                                                                                                                                                                                                                                                                                                ",
"                                                                                                                                                                                                                                                                                                                                ",
"                                                                                                                                                                                                                                                                                                                                "};
