/* XPM */
static char * player_left_xpm[] = {
"32 32 151 2",
"  	c None",
". 	c #140000",
"+ 	c #150000",
"@ 	c #250207",
"# 	c #170000",
"$ 	c #1B0000",
"% 	c #5C1A19",
"& 	c #903C3B",
"* 	c #9A3F3D",
"= 	c #903B36",
"- 	c #5D1B0F",
"; 	c #1D0000",
"> 	c #54251E",
", 	c #90423C",
"' 	c #99342D",
") 	c #A8352E",
"! 	c #A6352E",
"~ 	c #9A392F",
"{ 	c #863E36",
"] 	c #210000",
"^ 	c #110000",
"/ 	c #784944",
"( 	c #88483D",
"_ 	c #6B160C",
": 	c #A13730",
"< 	c #A4312C",
"[ 	c #A23330",
"} 	c #993A38",
"| 	c #601A20",
"1 	c #1C0000",
"2 	c #130000",
"3 	c #70463D",
"4 	c #5D2511",
"5 	c #621B03",
"6 	c #943C27",
"7 	c #9D382D",
"8 	c #9E3330",
"9 	c #9D3B3C",
"0 	c #85393E",
"a 	c #2A0000",
"b 	c #120300",
"c 	c #160000",
"d 	c #D19E78",
"e 	c #D89B6B",
"f 	c #D7986B",
"g 	c #DE9577",
"h 	c #6A1610",
"i 	c #893B3E",
"j 	c #844648",
"k 	c #230000",
"l 	c #040000",
"m 	c #EEC4A1",
"n 	c #F9C89B",
"o 	c #F0C397",
"p 	c #F4C2A6",
"q 	c #DB9E9C",
"r 	c #561920",
"s 	c #724043",
"t 	c #180000",
"u 	c #0F0305",
"v 	c #3B2722",
"w 	c #C7A595",
"x 	c #C8A794",
"y 	c #C5A096",
"z 	c #4E232D",
"A 	c #502533",
"B 	c #4B2227",
"C 	c #190000",
"D 	c #070000",
"E 	c #0F0000",
"F 	c #0C0000",
"G 	c #442932",
"H 	c #412D3A",
"I 	c #543D4C",
"J 	c #593A47",
"K 	c #68454C",
"L 	c #664145",
"M 	c #4B2B2A",
"N 	c #3D2829",
"O 	c #160700",
"P 	c #100000",
"Q 	c #5E4552",
"R 	c #4C3757",
"S 	c #443E74",
"T 	c #7F77A5",
"U 	c #5B4147",
"V 	c #59332C",
"W 	c #6B4542",
"X 	c #654044",
"Y 	c #5F3E44",
"Z 	c #130001",
"` 	c #0A0100",
" .	c #B5A99D",
"..	c #B2A09F",
"+.	c #624658",
"@.	c #836D94",
"#.	c #7670B0",
"$.	c #786FA4",
"%.	c #DDC0C7",
"&.	c #CAA399",
"*.	c #926765",
"=.	c #673F44",
"-.	c #5F4348",
";.	c #060000",
">.	c #030000",
",.	c #B4A2A4",
"'.	c #4E3247",
").	c #86678B",
"!.	c #8B74A0",
"~.	c #876D93",
"{.	c #E8C3D4",
"].	c #93656B",
"^.	c #59252D",
"/.	c #6A4349",
"(.	c #796D6F",
"_.	c #050503",
":.	c #150001",
"<.	c #69414C",
"[.	c #6E4258",
"}.	c #64425D",
"|.	c #66455E",
"1.	c #6B404C",
"2.	c #53252B",
"3.	c #512028",
"4.	c #69464B",
"5.	c #50514E",
"6.	c #6C7670",
"7.	c #000000",
"8.	c #200000",
"9.	c #7A3933",
"0.	c #763534",
"a.	c #170001",
"b.	c #6C423C",
"c.	c #704138",
"d.	c #522929",
"e.	c #4B3135",
"f.	c #6F6F6F",
"g.	c #6D7773",
"h.	c #060700",
"i.	c #1A0000",
"j.	c #843B2B",
"k.	c #833A2C",
"l.	c #6D4736",
"m.	c #61413E",
"n.	c #000100",
"o.	c #000602",
"p.	c #E19B85",
"q.	c #793823",
"r.	c #C1A694",
"s.	c #55443E",
"t.	c #0D0405",
"                . . + + @ @ . . # #                             ",
"                . . + + @ @ . . # #                             ",
"            $ $ % % & & * * = = - - ; ;                         ",
"            $ $ % % & & * * = = - - ; ;                         ",
"        . . > > , , ' ' ) ) ! ! ~ ~ { { ] ]                     ",
"        . . > > , , ' ' ) ) ! ! ~ ~ { { ] ]                     ",
"        ^ ^ / / ( ( _ _ : : < < [ [ } } | | 1 1                 ",
"        ^ ^ / / ( ( _ _ : : < < [ [ } } | | 1 1                 ",
"        2 2 3 3 4 4 5 5 6 6 7 7 8 8 9 9 0 0 a a                 ",
"        2 2 3 3 4 4 5 5 6 6 7 7 8 8 9 9 0 0 a a                 ",
"        b b c c d d e e f f g g h h i i j j k k                 ",
"        b b c c d d e e f f g g h h i i j j k k                 ",
"        l l 2 2 m m n n o o p p q q r r s s t t                 ",
"        l l 2 2 m m n n o o p p q q r r s s t t                 ",
"        u u v v 1 1 w w x x y y z z A A B B C C D D             ",
"        u u v v 1 1 w w x x y y z z A A B B C C D D             ",
"            E E F F G G H H I I J J K K L L M M N N D D         ",
"            E E F F G G H H I I J J K K L L M M N N D D         ",
"        O O P P Q Q R R S S T T U U V V W W X X Y Y Z Z         ",
"        O O P P Q Q R R S S T T U U V V W W X X Y Y Z Z         ",
"    ` `  . .....+.+.@.@.#.#.$.$.%.%.&.&.*.*.=.=.-.-.;.;.        ",
"    ` `  . .....+.+.@.@.#.#.$.$.%.%.&.&.*.*.=.=.-.-.;.;.        ",
"        >.>.,.,.'.'.).).!.!.~.~.{.{.].].^.^././.(.(._._.        ",
"        >.>.,.,.'.'.).).!.!.~.~.{.{.].].^.^././.(.(._._.        ",
"            :.:.<.<.[.[.}.}.|.|.1.1.2.2.3.3.4.4.5.5.6.6.7.7.    ",
"            :.:.<.<.[.[.}.}.|.|.1.1.2.2.3.3.4.4.5.5.6.6.7.7.    ",
"            8.8.9.9.0.0.a.a.E E b.b.c.c.d.d.e.e.f.f.g.g.h.h.    ",
"            8.8.9.9.0.0.a.a.E E b.b.c.c.d.d.e.e.f.f.g.g.h.h.    ",
"            i.i.j.j.k.k.c c     t t l.l.m.m.F F n.n.o.o.        ",
"            i.i.j.j.k.k.c c     t t l.l.m.m.F F n.n.o.o.        ",
"            2 2 p.p.q.q.2 2     # # r.r.s.s.t.t.                ",
"            2 2 p.p.q.q.2 2     # # r.r.s.s.t.t.                "};
