/* XPM */
static char * player_xpm[] = {
"32 32 151 2",
"  	c None",
". 	c #170000",
"+ 	c #140000",
"@ 	c #250207",
"# 	c #150000",
"$ 	c #1D0000",
"% 	c #5D1B0F",
"& 	c #903B36",
"* 	c #9A3F3D",
"= 	c #903C3B",
"- 	c #5C1A19",
"; 	c #1B0000",
"> 	c #210000",
", 	c #863E36",
"' 	c #9A392F",
") 	c #A6352E",
"! 	c #A8352E",
"~ 	c #99342D",
"{ 	c #90423C",
"] 	c #54251E",
"^ 	c #1C0000",
"/ 	c #601A20",
"( 	c #993A38",
"_ 	c #A23330",
": 	c #A4312C",
"< 	c #A13730",
"[ 	c #6B160C",
"} 	c #88483D",
"| 	c #784944",
"1 	c #110000",
"2 	c #2A0000",
"3 	c #85393E",
"4 	c #9D3B3C",
"5 	c #9E3330",
"6 	c #9D382D",
"7 	c #943C27",
"8 	c #621B03",
"9 	c #5D2511",
"0 	c #70463D",
"a 	c #130000",
"b 	c #230000",
"c 	c #844648",
"d 	c #893B3E",
"e 	c #6A1610",
"f 	c #DE9577",
"g 	c #D7986B",
"h 	c #D89B6B",
"i 	c #D19E78",
"j 	c #160000",
"k 	c #120300",
"l 	c #180000",
"m 	c #724043",
"n 	c #561920",
"o 	c #DB9E9C",
"p 	c #F4C2A6",
"q 	c #F0C397",
"r 	c #F9C89B",
"s 	c #EEC4A1",
"t 	c #040000",
"u 	c #070000",
"v 	c #190000",
"w 	c #4B2227",
"x 	c #502533",
"y 	c #4E232D",
"z 	c #C5A096",
"A 	c #C8A794",
"B 	c #C7A595",
"C 	c #3B2722",
"D 	c #0F0305",
"E 	c #3D2829",
"F 	c #4B2B2A",
"G 	c #664145",
"H 	c #68454C",
"I 	c #593A47",
"J 	c #543D4C",
"K 	c #412D3A",
"L 	c #442932",
"M 	c #0C0000",
"N 	c #0F0000",
"O 	c #130001",
"P 	c #5F3E44",
"Q 	c #654044",
"R 	c #6B4542",
"S 	c #59332C",
"T 	c #5B4147",
"U 	c #7F77A5",
"V 	c #443E74",
"W 	c #4C3757",
"X 	c #5E4552",
"Y 	c #100000",
"Z 	c #160700",
"` 	c #060000",
" .	c #5F4348",
"..	c #673F44",
"+.	c #926765",
"@.	c #CAA399",
"#.	c #DDC0C7",
"$.	c #786FA4",
"%.	c #7670B0",
"&.	c #836D94",
"*.	c #624658",
"=.	c #B2A09F",
"-.	c #B5A99D",
";.	c #0A0100",
">.	c #050503",
",.	c #796D6F",
"'.	c #6A4349",
").	c #59252D",
"!.	c #93656B",
"~.	c #E8C3D4",
"{.	c #876D93",
"].	c #8B74A0",
"^.	c #86678B",
"/.	c #4E3247",
"(.	c #B4A2A4",
"_.	c #030000",
":.	c #000000",
"<.	c #6C7670",
"[.	c #50514E",
"}.	c #69464B",
"|.	c #512028",
"1.	c #53252B",
"2.	c #6B404C",
"3.	c #66455E",
"4.	c #64425D",
"5.	c #6E4258",
"6.	c #69414C",
"7.	c #150001",
"8.	c #060700",
"9.	c #6D7773",
"0.	c #6F6F6F",
"a.	c #4B3135",
"b.	c #522929",
"c.	c #704138",
"d.	c #6C423C",
"e.	c #170001",
"f.	c #763534",
"g.	c #7A3933",
"h.	c #200000",
"i.	c #000602",
"j.	c #000100",
"k.	c #61413E",
"l.	c #6D4736",
"m.	c #833A2C",
"n.	c #843B2B",
"o.	c #1A0000",
"p.	c #0D0405",
"q.	c #55443E",
"r.	c #C1A694",
"s.	c #793823",
"t.	c #E19B85",
"                            . . + + @ @ # # + +                 ",
"                            . . + + @ @ # # + +                 ",
"                        $ $ % % & & * * = = - - ; ;             ",
"                        $ $ % % & & * * = = - - ; ;             ",
"                    > > , , ' ' ) ) ! ! ~ ~ { { ] ] + +         ",
"                    > > , , ' ' ) ) ! ! ~ ~ { { ] ] + +         ",
"                ^ ^ / / ( ( _ _ : : < < [ [ } } | | 1 1         ",
"                ^ ^ / / ( ( _ _ : : < < [ [ } } | | 1 1         ",
"                2 2 3 3 4 4 5 5 6 6 7 7 8 8 9 9 0 0 a a         ",
"                2 2 3 3 4 4 5 5 6 6 7 7 8 8 9 9 0 0 a a         ",
"                b b c c d d e e f f g g h h i i j j k k         ",
"                b b c c d d e e f f g g h h i i j j k k         ",
"                l l m m n n o o p p q q r r s s a a t t         ",
"                l l m m n n o o p p q q r r s s a a t t         ",
"            u u v v w w x x y y z z A A B B ^ ^ C C D D         ",
"            u u v v w w x x y y z z A A B B ^ ^ C C D D         ",
"        u u E E F F G G H H I I J J K K L L M M N N             ",
"        u u E E F F G G H H I I J J K K L L M M N N             ",
"        O O P P Q Q R R S S T T U U V V W W X X Y Y Z Z         ",
"        O O P P Q Q R R S S T T U U V V W W X X Y Y Z Z         ",
"        ` `  . .....+.+.@.@.#.#.$.$.%.%.&.&.*.*.=.=.-.-.;.;.    ",
"        ` `  . .....+.+.@.@.#.#.$.$.%.%.&.&.*.*.=.=.-.-.;.;.    ",
"        >.>.,.,.'.'.).).!.!.~.~.{.{.].].^.^././.(.(._._.        ",
"        >.>.,.,.'.'.).).!.!.~.~.{.{.].].^.^././.(.(._._.        ",
"    :.:.<.<.[.[.}.}.|.|.1.1.2.2.3.3.4.4.5.5.6.6.7.7.            ",
"    :.:.<.<.[.[.}.}.|.|.1.1.2.2.3.3.4.4.5.5.6.6.7.7.            ",
"    8.8.9.9.0.0.a.a.b.b.c.c.d.d.N N e.e.f.f.g.g.h.h.            ",
"    8.8.9.9.0.0.a.a.b.b.c.c.d.d.N N e.e.f.f.g.g.h.h.            ",
"        i.i.j.j.M M k.k.l.l.l l     j j m.m.n.n.o.o.            ",
"        i.i.j.j.M M k.k.l.l.l l     j j m.m.n.n.o.o.            ",
"                p.p.q.q.r.r.. .     a a s.s.t.t.a a             ",
"                p.p.q.q.r.r.. .     a a s.s.t.t.a a             "};
