/* XPM */
static char * step_label_xpm[] = {
"238 32 4 1",
" 	c None",
".	c #000000",
"+	c #FFFFFF",
"@	c #FEFEFE",
"                                                                                                                                                                                                                                              ",
"                                                                                                                                                                                                                                              ",
"                                                                                                                                                                                                                                              ",
"      .........             ....                                                                            ....                               ....                                                                                           ",
"     .+++++++++.           .++++.                                                                          .++++.                             .++++.                                                                                          ",
"     .+++++++++.           .++++.                                                                          .++++.                             .++++.                                                                                          ",
"   ...+@....@++..          .++++.                                                                          .++++.                             .++++.                                                                                          ",
"  .++++.    .++++.         .++++.                                                                          .++++.                             .++++.                                                                                          ",
"  .++++.    .++++.     .....++++.....         .........        ............                            .....++++.....        ..........       .++++.     ....         .........        ............                                 ....      ",
"  .++++.    .++++.    .++++++++++++++.       .+++++++++.      .++++++++++++.                          .++++++++++++++.      .@+++++++++.      .++++.    .++++.       .+++++++++.      .++++++++++++.                               .++++.     ",
"  .++++.    .++++.    .++++++++++++++.       .+++++++++.      .++++++++++++.                          .++++++++++++++.      .@+++++++++.      .++++.    .++++.       .+++++++++.      .++++++++++++.                               .++++.     ",
"  .++++.    .++++.     ....@++++@....      ..@+@....@++..     .++++@....@++...                         ....@++++@....      ..@+......++...    .++++.    .++++.     ..@+@....@++..     .++++......++...                             .++++.     ",
"  .++++.     ....          .++++.         .++++.    .++++.    .++++.    .++++.                             .++++.         .++++.    .++++.    .++++.    .++++.    .++++.    .++++.    .++++.    .++++.                             .++++.     ",
"  .++++.........           .++++.         .++++.    .++++.    .++++.    .++++.                             .++++.         .++++.    .++++.    .++++.    .++++.    .++++.    .++++.    .++++.    .++++.                             .++++.     ",
"   ...+++++++++.           .++++.         .++++.    .++++.    .++++.    .++++.                             .++++.          .....    .++++.    .++++.  ...++..     .++++.    .++++.    .++++.    .++++.                              ....      ",
"     .+++++++++.           .++++.         .++++.    .++++.    .++++.    .++++.                             .++++.                   .++++.    .++++.  .++++.      .++++.    .++++.    .++++.    .++++.                                        ",
"      .......++..          .++++.         .++++@....+++++.    .++++.    .++++.                             .++++.            ........++++.    .++++....++++.      .++++@....+++++.    .++++.    .++++.                                        ",
"            .++++.         .++++.         .++++++++++++++.    .++++.    .++++.                             .++++.           .@+++++++++++.    .+++++++++...       .++++++++++++++.    .++++.    .++++.                                        ",
"   ....     .++++.         .++++.         .++++++++++++++.    .++++.    .++++.                             .++++.          ..@+++++++++++.    .+++++++++.         .++++++++++++++.    .++++.    .++++.                                        ",
"  .++++.    .++++.         .++++.         .++++..........     .++++.    .++++.                             .++++.         .++++......++++.    .++++....+...       .++++..........     .++++.    .++++.                                        ",
"  .++++.    .++++.         .++++.         .++++.              .++++.    .++++.                             .++++.         .++++.    .++++.    .++++.  .++++.      .++++.              .++++.    .++++.                                        ",
"  .++++.    .++++.         .++++.         .++++.     ....     .++++.    .++++.                             .++++.         .++++.    .++++.    .++++.  .@@++..     .++++.     ....     .++++.    .++++.                              ....      ",
"  .++++.    .++++.         .++++.         .++++.    .++++.    .++++.    .++++.                             .++++.         .++++.    .++++.    .++++.   ..++++.    .++++.    .++++.    .++++.    .++++.                             .++++.     ",
"  .++++.    .++++.         .++++.         .++++.    .++++.    .++++.    .++++.                             .++++.         .++++.    .++++.    .++++.    .++++.    .++++.    .++++.    .++++.    .++++.                             .++++.     ",
"   ...+......++..           ...+@....      ..@+......++..     .++++@....+++..                               ...+@....      ..@+......++++.    .++++.    .++++.     ..@+......++..     .++++.    .++++.                             .++++.     ",
"     .+++++++++.              .++++++.       .+++++++++.      .++++++++++++.                                  .++++++.      .@+++++++++++.    .++++.    .++++.       .+++++++++.      .++++.    .++++.                             .++++.     ",
"     .+++++++++.              .++++++.       .+++++++++.      .++++++++++++.                                  .++++++.      .@+++++++++++.    .++++.    .++++.       .+++++++++.      .++++.    .++++.                             .++++.     ",
"      .........                ......         .........       .++++........                                    ......        ............      ....      ....         .........        ....      ....                               ....      ",
"                                                              .++++.                                                                                                                                                                          ",
"                                                              .++++.                                                                                                                                                                          ",
"                                                              .++++.                                                                                                                                                                          ",
"                                                              ......                                                                                                                                                                          "};
