/* XPM */
static char * wall_empty_right_xpm[] = {
"32 32 211 2",
"  	c #93A5C3",
". 	c #9A9EBF",
"+ 	c #A4A3C6",
"@ 	c #A1A5C6",
"# 	c #9BA3C2",
"$ 	c #99A4C2",
"% 	c #97A5C2",
"& 	c #99A6C4",
"* 	c #99A9C6",
"= 	c #94A6C2",
"- 	c #98A8C5",
"; 	c #9BA8C6",
"> 	c #9AA5C4",
", 	c #94A1BF",
"' 	c #95A4C1",
") 	c #93A7C2",
"! 	c #97A7C4",
"~ 	c #35395A",
"{ 	c #353456",
"] 	c #323858",
"^ 	c #313958",
"/ 	c #2F3A58",
"( 	c #2D3B58",
"_ 	c #2F3C5A",
": 	c #313E5C",
"< 	c #2D3D5A",
"[ 	c #2F3F5C",
"} 	c #333E5C",
"| 	c #2B3956",
"1 	c #96A4C1",
"2 	c #353756",
"3 	c #353454",
"4 	c #7C82A0",
"5 	c #7A83A0",
"6 	c #7884A0",
"7 	c #7886A1",
"8 	c #7A88A3",
"9 	c #7585A0",
"0 	c #7989A3",
"a 	c #7987A2",
"b 	c #76819D",
"c 	c #32405B",
"d 	c #273752",
"e 	c #96A4BF",
"f 	c #373956",
"g 	c #7C7B99",
"h 	c #555C77",
"i 	c #545D75",
"j 	c #525E75",
"k 	c #526077",
"l 	c #54627B",
"m 	c #4F5F77",
"n 	c #485870",
"o 	c #505E79",
"p 	c #717F9A",
"q 	c #2C3C54",
"r 	c #93A4BC",
"s 	c #3C415D",
"t 	c #80819C",
"u 	c #545B74",
"v 	c #545E73",
"w 	c #525F73",
"x 	c #536075",
"y 	c #526175",
"z 	c #505F75",
"A 	c #4C5D73",
"B 	c #506179",
"C 	c #4F5D76",
"D 	c #4E5A74",
"E 	c #74839B",
"F 	c #293C51",
"G 	c #98ABC0",
"H 	c #333851",
"I 	c #595972",
"J 	c #545C72",
"K 	c #525D70",
"L 	c #515E70",
"M 	c #4E5B6E",
"N 	c #4B5A6C",
"O 	c #505F73",
"P 	c #4F6073",
"Q 	c #506177",
"R 	c #4F5E74",
"S 	c #4C5872",
"T 	c #536178",
"U 	c #2D4055",
"V 	c #383E55",
"W 	c #5C5D74",
"X 	c #545C70",
"Y 	c #525D6E",
"Z 	c #525F6F",
"` 	c #566675",
" .	c #546375",
"..	c #4C5E6F",
"+.	c #4E5F72",
"@.	c #4D5B72",
"#.	c #515D74",
"$.	c #2E4254",
"%.	c #93A7B9",
"&.	c #30364B",
"*.	c #5A5B71",
"=.	c #535B6D",
"-.	c #505B6C",
";.	c #525E6C",
">.	c #55606E",
",.	c #556373",
"'.	c #4E5E6D",
").	c #607283",
"!.	c #728394",
"~.	c #6C7B8F",
"{.	c #4E5D71",
"].	c #2B3F52",
"^.	c #32354B",
"/.	c #545D6E",
"(.	c #4D5B6B",
"_.	c #545F6D",
":.	c #566170",
"<.	c #546270",
"[.	c #6A7C8A",
"}.	c #6F8192",
"|.	c #657586",
"1.	c #536072",
"2.	c #506071",
"3.	c #2C3E4E",
"4.	c #97AABD",
"5.	c #35394E",
"6.	c #5D5E75",
"7.	c #596173",
"8.	c #515E6E",
"9.	c #52606D",
"0.	c #505D6B",
"a.	c #526170",
"b.	c #50606F",
"c.	c #525F71",
"d.	c #546174",
"e.	c #2D3F50",
"f.	c #95A9BC",
"g.	c #34384D",
"h.	c #7D889B",
"i.	c #546272",
"j.	c #515D6B",
"k.	c #4F5A69",
"l.	c #505B6A",
"m.	c #53616E",
"n.	c #50616D",
"o.	c #536272",
"p.	c #536070",
"q.	c #2F3E50",
"r.	c #98A9BF",
"s.	c #32354D",
"t.	c #5A5A73",
"u.	c #788295",
"v.	c #7A8799",
"w.	c #545E6F",
"x.	c #545E71",
"y.	c #566074",
"z.	c #2F3E52",
"A.	c #9AA8C1",
"B.	c #333552",
"C.	c #595974",
"D.	c #565E75",
"E.	c #566172",
"F.	c #576070",
"G.	c #565F70",
"H.	c #586374",
"I.	c #646E82",
"J.	c #6C778A",
"K.	c #586278",
"L.	c #4E5B70",
"M.	c #2A394F",
"N.	c #96A1BD",
"O.	c #333554",
"P.	c #393957",
"Q.	c #555D73",
"R.	c #555E6F",
"S.	c #596175",
"T.	c #596077",
"U.	c #575F78",
"V.	c #344057",
"W.	c #2D3C54",
"X.	c #97A2BE",
"Y.	c #393B58",
"Z.	c #373754",
"`.	c #323A50",
" +	c #313B4E",
".+	c #333C50",
"++	c #333C4E",
"@+	c #343A4C",
"#+	c #32384A",
"$+	c #363E52",
"%+	c #333B52",
"&+	c #343952",
"*+	c #373C58",
"=+	c #363D58",
"-+	c #353F59",
";+	c #9BA4BC",
">+	c #9C9FB7",
",+	c #A3A4BB",
"'+	c #A0A6BB",
")+	c #9CA5B6",
"!+	c #9FA5B7",
"~+	c #9FA5B5",
"{+	c #9FA3B4",
"]+	c #9DA1B2",
"^+	c #A1A7BA",
"/+	c #9EA4B6",
"(+	c #9FA2BA",
"_+	c #A4A7BF",
":+	c #9BA1B8",
"<+	c #9BA3B9",
"[+	c #97A3B8",
"    . . + + @ @ # # $ $ % % & & * * = = - - ; ; > > , , ' ' ) ) ",
"    . . + + @ @ # # $ $ % % & & * * = = - - ; ; > > , , ' ' ) ) ",
"! ! ~ ~ { { ] ] ^ ^ / / ( ( _ _ : : < < [ [ : : } } | | < ( ( ( ",
"! ! ~ ~ { { ] ] ^ ^ / / ( ( _ _ : : < < [ [ : : } } | | < ( ( ( ",
"1 1 2 2 3 3 4 4 5 5 6 6 6 6 7 7 8 8 9 9 0 0 a a b b c c d ( ( ( ",
"1 1 2 2 3 3 4 4 5 5 6 6 6 6 7 7 8 8 9 9 0 0 a a b b c c d ( ( ( ",
"e e f f g g h h i i j j j j k k l l m m n n o o b b p p q ( ( ( ",
"e e f f g g h h i i j j j j k k l l m m n n o o b b p p q ( ( ( ",
"r r s s t t u u v v w w x x y y z z A A B B C C D D E E F ( ( ( ",
"r r s s t t u u v v w w x x y y z z A A B B C C D D E E F ( ( ( ",
"G G H H I I J J K K L L M M N N O O P P Q Q R R S S T T U ( ( ( ",
"G G H H I I J J K K L L M M N N O O P P Q Q R R S S T T U ( ( ( ",
"G G V V W W X X Y Y Y Y Z Z ` `  . .....+.+.@.@.#.#.z z $.( ( ( ",
"G G V V W W X X Y Y Y Y Z Z ` `  . .....+.+.@.@.#.#.z z $.( ( ( ",
"%.%.&.&.*.*.=.=.-.-.;.;.>.>.,.,.'.'.).).!.!.~.~.x x {.{.].( ( ( ",
"%.%.&.&.*.*.=.=.-.-.;.;.>.>.,.,.'.'.).).!.!.~.~.x x {.{.].( ( ( ",
"%.%.^.^.*.*././.(.(._._.:.:.<.<.'.'.[.[.}.}.|.|.1.1.2.2.3.( ( ( ",
"%.%.^.^.*.*././.(.(._._.:.:.<.<.'.'.[.[.}.}.|.|.1.1.2.2.3.( ( ( ",
"4.4.5.5.6.6.7.7.8.8._._.:.:.9.9.0.0.a.a.b.b.c.c.L L d.d.e.( ( ( ",
"4.4.5.5.6.6.7.7.8.8._._.:.:.9.9.0.0.a.a.b.b.c.c.L L d.d.e.( ( ( ",
"f.f.g.g.W W h.h.i.i.j.j.k.k.l.l.m.m.n.n.o.o.p.p.Z Z d.d.q.( ( ( ",
"f.f.g.g.W W h.h.i.i.j.j.k.k.l.l.m.m.n.n.o.o.p.p.Z Z d.d.q.( ( ( ",
"r.r.s.s.t.t.u.u.v.v.w.w.>.>.>.>.;.;.m.m.8.8.8.8.x.x.y.y.z.( ( ( ",
"r.r.s.s.t.t.u.u.v.v.w.w.>.>.>.>.;.;.m.m.8.8.8.8.x.x.y.y.z.( ( ( ",
"A.A.B.B.C.C.D.D.1.1.E.E.F.F.G.G.Y Y H.H.I.I.J.J.K.K.L.L.M.( ( ( ",
"A.A.B.B.C.C.D.D.1.1.E.E.F.F.G.G.Y Y H.H.I.I.J.J.K.K.L.L.M.( ( ( ",
"N.N.O.O.P.P.Q.Q.x.x.G.G.G.G.R.R.=.=.S.S.S.S.T.T.U.U.V.V.W.( ( ( ",
"N.N.O.O.P.P.Q.Q.x.x.G.G.G.G.R.R.=.=.S.S.S.S.T.T.U.U.V.V.W.( ( ( ",
"X.X.Y.Y.Z.Z.`.`. + +.+.+++++@+@+#+#+$+$+%+%+&+&+*+*+=+=+-+( ( ( ",
"X.X.Y.Y.Z.Z.`.`. + +.+.+++++@+@+#+#+$+$+%+%+&+&+*+*+=+=+-+( ( ( ",
";+;+>+>+,+,+'+'+)+)+!+!+~+~+{+{+]+]+^+^+/+/+(+(+_+_+:+:+<+<+[+[+",
";+;+>+>+,+,+'+'+)+)+!+!+~+~+{+{+]+]+^+^+/+/+(+(+_+_+:+:+<+<+[+[+"};
