/* XPM */
static char * wall_corner_bottom_left_xpm[] = {
"32 32 196 2",
"  	c #93A5C3",
". 	c #2D3B58",
"+ 	c #97A7C4",
"@ 	c #313E5C",
"# 	c #2D3D5A",
"$ 	c #2F3F5C",
"% 	c #333E5C",
"& 	c #2B3956",
"* 	c #35395A",
"= 	c #353456",
"- 	c #323858",
"; 	c #313958",
"> 	c #2F3A58",
", 	c #2F3C5A",
"' 	c #96A4C1",
") 	c #353756",
"! 	c #353454",
"~ 	c #7C82A0",
"{ 	c #7A83A0",
"] 	c #7884A0",
"^ 	c #7886A1",
"/ 	c #7A88A3",
"( 	c #7585A0",
"_ 	c #7989A3",
": 	c #7987A2",
"< 	c #76819D",
"[ 	c #32405B",
"} 	c #273752",
"| 	c #96A4BF",
"1 	c #373956",
"2 	c #7C7B99",
"3 	c #555C77",
"4 	c #545D75",
"5 	c #525E75",
"6 	c #526077",
"7 	c #54627B",
"8 	c #4F5F77",
"9 	c #485870",
"0 	c #505E79",
"a 	c #717F9A",
"b 	c #2C3C54",
"c 	c #93A4BC",
"d 	c #3C415D",
"e 	c #80819C",
"f 	c #545B74",
"g 	c #545E73",
"h 	c #525F73",
"i 	c #536075",
"j 	c #526175",
"k 	c #505F75",
"l 	c #4C5D73",
"m 	c #506179",
"n 	c #4F5D76",
"o 	c #4E5A74",
"p 	c #74839B",
"q 	c #293C51",
"r 	c #98ABC0",
"s 	c #333851",
"t 	c #595972",
"u 	c #545C72",
"v 	c #525D70",
"w 	c #515E70",
"x 	c #4E5B6E",
"y 	c #4B5A6C",
"z 	c #505F73",
"A 	c #4F6073",
"B 	c #506177",
"C 	c #4F5E74",
"D 	c #4C5872",
"E 	c #536178",
"F 	c #2D4055",
"G 	c #383E55",
"H 	c #5C5D74",
"I 	c #545C70",
"J 	c #525D6E",
"K 	c #525F6F",
"L 	c #566675",
"M 	c #546375",
"N 	c #4C5E6F",
"O 	c #4E5F72",
"P 	c #4D5B72",
"Q 	c #515D74",
"R 	c #2E4254",
"S 	c #93A7B9",
"T 	c #30364B",
"U 	c #5A5B71",
"V 	c #535B6D",
"W 	c #505B6C",
"X 	c #525E6C",
"Y 	c #55606E",
"Z 	c #556373",
"` 	c #4E5E6D",
" .	c #607283",
"..	c #728394",
"+.	c #6C7B8F",
"@.	c #4E5D71",
"#.	c #2B3F52",
"$.	c #32354B",
"%.	c #545D6E",
"&.	c #4D5B6B",
"*.	c #545F6D",
"=.	c #566170",
"-.	c #546270",
";.	c #6A7C8A",
">.	c #6F8192",
",.	c #657586",
"'.	c #536072",
").	c #506071",
"!.	c #2C3E4E",
"~.	c #97AABD",
"{.	c #35394E",
"].	c #5D5E75",
"^.	c #596173",
"/.	c #515E6E",
"(.	c #52606D",
"_.	c #505D6B",
":.	c #526170",
"<.	c #50606F",
"[.	c #525F71",
"}.	c #546174",
"|.	c #2D3F50",
"1.	c #95A9BC",
"2.	c #34384D",
"3.	c #7D889B",
"4.	c #546272",
"5.	c #515D6B",
"6.	c #4F5A69",
"7.	c #505B6A",
"8.	c #53616E",
"9.	c #50616D",
"0.	c #536272",
"a.	c #536070",
"b.	c #2F3E50",
"c.	c #98A9BF",
"d.	c #32354D",
"e.	c #5A5A73",
"f.	c #788295",
"g.	c #7A8799",
"h.	c #545E6F",
"i.	c #545E71",
"j.	c #566074",
"k.	c #2F3E52",
"l.	c #9AA8C1",
"m.	c #333552",
"n.	c #595974",
"o.	c #565E75",
"p.	c #566172",
"q.	c #576070",
"r.	c #565F70",
"s.	c #586374",
"t.	c #646E82",
"u.	c #6C778A",
"v.	c #586278",
"w.	c #4E5B70",
"x.	c #2A394F",
"y.	c #96A1BD",
"z.	c #333554",
"A.	c #393957",
"B.	c #555D73",
"C.	c #555E6F",
"D.	c #596175",
"E.	c #596077",
"F.	c #575F78",
"G.	c #344057",
"H.	c #2D3C54",
"I.	c #97A2BE",
"J.	c #393B58",
"K.	c #373754",
"L.	c #323A50",
"M.	c #313B4E",
"N.	c #333C50",
"O.	c #333C4E",
"P.	c #343A4C",
"Q.	c #32384A",
"R.	c #363E52",
"S.	c #333B52",
"T.	c #343952",
"U.	c #373C58",
"V.	c #363D58",
"W.	c #353F59",
"X.	c #9BA4BC",
"Y.	c #9C9FB7",
"Z.	c #A3A4BB",
"`.	c #A0A6BB",
" +	c #9CA5B6",
".+	c #9FA5B7",
"++	c #9FA5B5",
"@+	c #9FA3B4",
"#+	c #9DA1B2",
"$+	c #A1A7BA",
"%+	c #9EA4B6",
"&+	c #9FA2BA",
"*+	c #A4A7BF",
"=+	c #9BA1B8",
"-+	c #9BA3B9",
";+	c #97A3B8",
"    . . . . . . . . . . . . . . . . . . . . . . . . . . . . . . ",
"    . . . . . . . . . . . . . . . . . . . . . . . . . . . . . . ",
"+ + . . . . . . . . . . . . . . . @ # # $ $ @ @ % % & & # . . . ",
"+ + * * = = - - ; ; > > . . , , @ @ # # $ $ @ @ % % & & # . . . ",
"' ' ) ) ! ! ~ ~ { { ] ] ] ] ^ ^ / / ( ( _ _ : : < < [ [ } . . . ",
"' ' ) ) ! ! ~ ~ { { ] ] ] ] ^ ^ / / ( ( _ _ : : < < [ [ } . . . ",
"| | 1 1 2 2 3 3 4 4 5 5 5 5 6 6 7 7 8 8 9 9 0 0 < < a a b . . . ",
"| | 1 1 2 2 3 3 4 4 5 5 5 5 6 6 7 7 8 8 9 9 0 0 < < a a b . . . ",
"c c d d e e f f g g h h i i j j k k l l m m n n o o p p q . . . ",
"c c d d e e f f g g h h i i j j k k l l m m n n o o p p q . . . ",
"r r s s t t u u v v w w x x y y z z A A B B C C D D E E F . . . ",
"r r s s t t u u v v w w x x y y z z A A B B C C D D E E F . . . ",
"r r G G H H I I J J J J K K L L M M N N O O P P Q Q k k R . . . ",
"r r G G H H I I J J J J K K L L M M N N O O P P Q Q k k R . . . ",
"S S T T U U V V W W X X Y Y Z Z ` `  . .....+.+.i i @.@.#.. . . ",
"S S T T U U V V W W X X Y Y Z Z ` `  . .....+.+.i i @.@.#.. . . ",
"S S $.$.U U %.%.&.&.*.*.=.=.-.-.` ` ;.;.>.>.,.,.'.'.).).!.. . . ",
"S S $.$.U U %.%.&.&.*.*.=.=.-.-.` ` ;.;.>.>.,.,.'.'.).).!.. . . ",
"~.~.{.{.].].^.^././.*.*.=.=.(.(._._.:.:.<.<.[.[.w w }.}.|.. . . ",
"~.~.{.{.].].^.^././.*.*.=.=.(.(._._.:.:.<.<.[.[.w w }.}.|.. . . ",
"1.1.2.2.H H 3.3.4.4.5.5.6.6.7.7.8.8.9.9.0.0.a.a.K K }.}.b.. . . ",
"1.1.2.2.H H 3.3.4.4.5.5.6.6.7.7.8.8.9.9.0.0.a.a.K K }.}.b.. . . ",
"c.c.d.d.e.e.f.f.g.g.h.h.Y Y Y Y X X 8.8././././.i.i.j.j.k.. . . ",
"c.c.d.d.e.e.f.f.g.g.h.h.Y Y Y Y X X 8.8././././.i.i.j.j.k.. . . ",
"l.l.m.m.n.n.o.o.'.'.p.p.q.q.r.r.J J s.s.t.t.u.u.v.v.w.w.x.. . . ",
"l.l.m.m.n.n.o.o.'.'.p.p.q.q.r.r.J J s.s.t.t.u.u.v.v.w.w.x.. . . ",
"y.y.z.z.A.A.B.B.i.i.r.r.r.r.C.C.V V D.D.D.D.E.E.F.F.G.G.H.. . . ",
"y.y.z.z.A.A.B.B.i.i.r.r.r.r.C.C.V V D.D.D.D.E.E.F.F.G.G.H.. . . ",
"I.I.J.J.K.K.L.L.M.M.N.N.O.O.P.P.Q.Q.R.R.S.S.T.T.U.U.V.V.W.. . . ",
"I.I.J.J.K.K.L.L.M.M.N.N.O.O.P.P.Q.Q.R.R.S.S.T.T.U.U.V.V.W.. . . ",
"X.X.Y.Y.Z.Z.`.`. + +.+.+++++@+@+#+#+$+$+%+%+&+&+*+*+=+=+-+-+;+;+",
"X.X.Y.Y.Z.Z.`.`. + +.+.+++++@+@+#+#+$+$+%+%+&+&+*+*+=+=+-+-+;+;+"};
