/* XPM */
static char * wall_empty_top_xpm[] = {
"32 32 211 2",
"  	c #93A5C3",
". 	c #2D3B58",
"+ 	c #93A7C2",
"@ 	c #97A7C4",
"# 	c #96ABC6",
"$ 	c #35395A",
"% 	c #353456",
"& 	c #323858",
"* 	c #313958",
"= 	c #2F3A58",
"- 	c #2F3C5A",
"; 	c #313E5C",
"> 	c #2D3D5A",
", 	c #2F3F5C",
"' 	c #333E5C",
") 	c #2B3956",
"! 	c #96A4C1",
"~ 	c #353756",
"{ 	c #353454",
"] 	c #7C82A0",
"^ 	c #7A83A0",
"/ 	c #7884A0",
"( 	c #7886A1",
"_ 	c #7A88A3",
": 	c #7585A0",
"< 	c #7989A3",
"[ 	c #7987A2",
"} 	c #76819D",
"| 	c #32405B",
"1 	c #273752",
"2 	c #8EA5BD",
"3 	c #96A4BF",
"4 	c #373956",
"5 	c #7C7B99",
"6 	c #555C77",
"7 	c #545D75",
"8 	c #525E75",
"9 	c #526077",
"0 	c #54627B",
"a 	c #4F5F77",
"b 	c #485870",
"c 	c #505E79",
"d 	c #717F9A",
"e 	c #2C3C54",
"f 	c #93ABC1",
"g 	c #93A4BC",
"h 	c #3C415D",
"i 	c #80819C",
"j 	c #545B74",
"k 	c #545E73",
"l 	c #525F73",
"m 	c #536075",
"n 	c #526175",
"o 	c #505F75",
"p 	c #4C5D73",
"q 	c #506179",
"r 	c #4F5D76",
"s 	c #4E5A74",
"t 	c #74839B",
"u 	c #293C51",
"v 	c #93ACBF",
"w 	c #98ABC0",
"x 	c #333851",
"y 	c #595972",
"z 	c #545C72",
"A 	c #525D70",
"B 	c #515E70",
"C 	c #4E5B6E",
"D 	c #4B5A6C",
"E 	c #505F73",
"F 	c #4F6073",
"G 	c #506177",
"H 	c #4F5E74",
"I 	c #4C5872",
"J 	c #536178",
"K 	c #2D4055",
"L 	c #91A9BC",
"M 	c #383E55",
"N 	c #5C5D74",
"O 	c #545C70",
"P 	c #525D6E",
"Q 	c #525F6F",
"R 	c #566675",
"S 	c #546375",
"T 	c #4C5E6F",
"U 	c #4E5F72",
"V 	c #4D5B72",
"W 	c #515D74",
"X 	c #2E4254",
"Y 	c #90A8B9",
"Z 	c #93A7B9",
"` 	c #30364B",
" .	c #5A5B71",
"..	c #535B6D",
"+.	c #505B6C",
"@.	c #525E6C",
"#.	c #55606E",
"$.	c #556373",
"%.	c #4E5E6D",
"&.	c #607283",
"*.	c #728394",
"=.	c #6C7B8F",
"-.	c #4E5D71",
";.	c #2B3F52",
">.	c #91AAB8",
",.	c #32354B",
"'.	c #545D6E",
").	c #4D5B6B",
"!.	c #545F6D",
"~.	c #566170",
"{.	c #546270",
"].	c #6A7C8A",
"^.	c #6F8192",
"/.	c #657586",
"(.	c #536072",
"_.	c #506071",
":.	c #2C3E4E",
"<.	c #95ABBD",
"[.	c #97AABD",
"}.	c #35394E",
"|.	c #5D5E75",
"1.	c #596173",
"2.	c #515E6E",
"3.	c #52606D",
"4.	c #505D6B",
"5.	c #526170",
"6.	c #50606F",
"7.	c #525F71",
"8.	c #546174",
"9.	c #2D3F50",
"0.	c #93A9BA",
"a.	c #95A9BC",
"b.	c #34384D",
"c.	c #7D889B",
"d.	c #546272",
"e.	c #515D6B",
"f.	c #4F5A69",
"g.	c #505B6A",
"h.	c #53616E",
"i.	c #50616D",
"j.	c #536272",
"k.	c #536070",
"l.	c #2F3E50",
"m.	c #94AABC",
"n.	c #98A9BF",
"o.	c #32354D",
"p.	c #5A5A73",
"q.	c #788295",
"r.	c #7A8799",
"s.	c #545E6F",
"t.	c #545E71",
"u.	c #566074",
"v.	c #2F3E52",
"w.	c #99ACC1",
"x.	c #9AA8C1",
"y.	c #333552",
"z.	c #595974",
"A.	c #565E75",
"B.	c #566172",
"C.	c #576070",
"D.	c #565F70",
"E.	c #586374",
"F.	c #646E82",
"G.	c #6C778A",
"H.	c #586278",
"I.	c #4E5B70",
"J.	c #2A394F",
"K.	c #98AAC4",
"L.	c #96A1BD",
"M.	c #333554",
"N.	c #393957",
"O.	c #555D73",
"P.	c #555E6F",
"Q.	c #596175",
"R.	c #596077",
"S.	c #575F78",
"T.	c #344057",
"U.	c #2D3C54",
"V.	c #95A5BF",
"W.	c #97A2BE",
"X.	c #393B58",
"Y.	c #373754",
"Z.	c #323A50",
"`.	c #313B4E",
" +	c #333C50",
".+	c #333C4E",
"++	c #343A4C",
"@+	c #32384A",
"#+	c #363E52",
"$+	c #333B52",
"%+	c #343952",
"&+	c #373C58",
"*+	c #363D58",
"=+	c #353F59",
"-+	c #99A7C0",
";+	c #9BA4BC",
">+	c #9C9FB7",
",+	c #A3A4BB",
"'+	c #A0A6BB",
")+	c #9CA5B6",
"!+	c #9FA5B7",
"~+	c #9FA5B5",
"{+	c #9FA3B4",
"]+	c #9DA1B2",
"^+	c #A1A7BA",
"/+	c #9EA4B6",
"(+	c #9FA2BA",
"_+	c #A4A7BF",
":+	c #9BA1B8",
"<+	c #9BA3B9",
"[+	c #97A3B8",
"    . . . . . . . . . . . . . . . . . . . . . . . . . . . . + + ",
"    . . . . . . . . . . . . . . . . . . . . . . . . . . . . + + ",
"@ @ . . . . . . . . . . . . . . . . . . . . . . . . . . . . # # ",
"@ @ $ $ % % & & * * = = . . - - ; ; > > , , ; ; ' ' ) ) > > # # ",
"! ! ~ ~ { { ] ] ^ ^ / / / / ( ( _ _ : : < < [ [ } } | | 1 1 2 2 ",
"! ! ~ ~ { { ] ] ^ ^ / / / / ( ( _ _ : : < < [ [ } } | | 1 1 2 2 ",
"3 3 4 4 5 5 6 6 7 7 8 8 8 8 9 9 0 0 a a b b c c } } d d e e f f ",
"3 3 4 4 5 5 6 6 7 7 8 8 8 8 9 9 0 0 a a b b c c } } d d e e f f ",
"g g h h i i j j k k l l m m n n o o p p q q r r s s t t u u v v ",
"g g h h i i j j k k l l m m n n o o p p q q r r s s t t u u v v ",
"w w x x y y z z A A B B C C D D E E F F G G H H I I J J K K L L ",
"w w x x y y z z A A B B C C D D E E F F G G H H I I J J K K L L ",
"w w M M N N O O P P P P Q Q R R S S T T U U V V W W o o X X Y Y ",
"w w M M N N O O P P P P Q Q R R S S T T U U V V W W o o X X Y Y ",
"Z Z ` `  . .....+.+.@.@.#.#.$.$.%.%.&.&.*.*.=.=.m m -.-.;.;.>.>.",
"Z Z ` `  . .....+.+.@.@.#.#.$.$.%.%.&.&.*.*.=.=.m m -.-.;.;.>.>.",
"Z Z ,.,. . .'.'.).).!.!.~.~.{.{.%.%.].].^.^././.(.(._._.:.:.<.<.",
"Z Z ,.,. . .'.'.).).!.!.~.~.{.{.%.%.].].^.^././.(.(._._.:.:.<.<.",
"[.[.}.}.|.|.1.1.2.2.!.!.~.~.3.3.4.4.5.5.6.6.7.7.B B 8.8.9.9.0.0.",
"[.[.}.}.|.|.1.1.2.2.!.!.~.~.3.3.4.4.5.5.6.6.7.7.B B 8.8.9.9.0.0.",
"a.a.b.b.N N c.c.d.d.e.e.f.f.g.g.h.h.i.i.j.j.k.k.Q Q 8.8.l.l.m.m.",
"a.a.b.b.N N c.c.d.d.e.e.f.f.g.g.h.h.i.i.j.j.k.k.Q Q 8.8.l.l.m.m.",
"n.n.o.o.p.p.q.q.r.r.s.s.#.#.#.#.@.@.h.h.2.2.2.2.t.t.u.u.v.v.w.w.",
"n.n.o.o.p.p.q.q.r.r.s.s.#.#.#.#.@.@.h.h.2.2.2.2.t.t.u.u.v.v.w.w.",
"x.x.y.y.z.z.A.A.(.(.B.B.C.C.D.D.P P E.E.F.F.G.G.H.H.I.I.J.J.K.K.",
"x.x.y.y.z.z.A.A.(.(.B.B.C.C.D.D.P P E.E.F.F.G.G.H.H.I.I.J.J.K.K.",
"L.L.M.M.N.N.O.O.t.t.D.D.D.D.P.P.....Q.Q.Q.Q.R.R.S.S.T.T.U.U.V.V.",
"L.L.M.M.N.N.O.O.t.t.D.D.D.D.P.P.....Q.Q.Q.Q.R.R.S.S.T.T.U.U.V.V.",
"W.W.X.X.Y.Y.Z.Z.`.`. + +.+.+++++@+@+#+#+$+$+%+%+&+&+*+*+=+=+-+-+",
"W.W.X.X.Y.Y.Z.Z.`.`. + +.+.+++++@+@+#+#+$+$+%+%+&+&+*+*+=+=+-+-+",
";+;+>+>+,+,+'+'+)+)+!+!+~+~+{+{+]+]+^+^+/+/+(+(+_+_+:+:+<+<+[+[+",
";+;+>+>+,+,+'+'+)+)+!+!+~+~+{+{+]+]+^+^+/+/+(+(+_+_+:+:+<+<+[+[+"};
