/* XPM */
static char * wall_full_but_top_right_xpm[] = {
"32 32 198 2",
"  	c #93A5C3",
". 	c #9A9EBF",
"+ 	c #A4A3C6",
"@ 	c #A1A5C6",
"# 	c #9BA3C2",
"$ 	c #99A4C2",
"% 	c #97A5C2",
"& 	c #99A6C4",
"* 	c #99A9C6",
"= 	c #94A6C2",
"- 	c #98A8C5",
"; 	c #9BA8C6",
"> 	c #9AA5C4",
", 	c #94A1BF",
"' 	c #95A4C1",
") 	c #93A7C2",
"! 	c #2D3B58",
"~ 	c #35395A",
"{ 	c #353456",
"] 	c #323858",
"^ 	c #313958",
"/ 	c #2F3A58",
"( 	c #2F3C5A",
"_ 	c #313E5C",
": 	c #2D3D5A",
"< 	c #2F3F5C",
"[ 	c #333E5C",
"} 	c #2B3956",
"| 	c #96ABC6",
"1 	c #353756",
"2 	c #353454",
"3 	c #7C82A0",
"4 	c #7A83A0",
"5 	c #7884A0",
"6 	c #7886A1",
"7 	c #7A88A3",
"8 	c #7585A0",
"9 	c #7989A3",
"0 	c #7987A2",
"a 	c #76819D",
"b 	c #32405B",
"c 	c #273752",
"d 	c #8EA5BD",
"e 	c #373956",
"f 	c #7C7B99",
"g 	c #555C77",
"h 	c #545D75",
"i 	c #525E75",
"j 	c #526077",
"k 	c #54627B",
"l 	c #4F5F77",
"m 	c #485870",
"n 	c #505E79",
"o 	c #717F9A",
"p 	c #2C3C54",
"q 	c #93ABC1",
"r 	c #3C415D",
"s 	c #80819C",
"t 	c #545B74",
"u 	c #545E73",
"v 	c #525F73",
"w 	c #536075",
"x 	c #526175",
"y 	c #505F75",
"z 	c #4C5D73",
"A 	c #506179",
"B 	c #4F5D76",
"C 	c #4E5A74",
"D 	c #74839B",
"E 	c #293C51",
"F 	c #93ACBF",
"G 	c #333851",
"H 	c #595972",
"I 	c #545C72",
"J 	c #525D70",
"K 	c #515E70",
"L 	c #4E5B6E",
"M 	c #4B5A6C",
"N 	c #505F73",
"O 	c #4F6073",
"P 	c #506177",
"Q 	c #4F5E74",
"R 	c #4C5872",
"S 	c #536178",
"T 	c #2D4055",
"U 	c #91A9BC",
"V 	c #383E55",
"W 	c #5C5D74",
"X 	c #545C70",
"Y 	c #525D6E",
"Z 	c #525F6F",
"` 	c #566675",
" .	c #546375",
"..	c #4C5E6F",
"+.	c #4E5F72",
"@.	c #4D5B72",
"#.	c #515D74",
"$.	c #2E4254",
"%.	c #90A8B9",
"&.	c #30364B",
"*.	c #5A5B71",
"=.	c #535B6D",
"-.	c #505B6C",
";.	c #525E6C",
">.	c #55606E",
",.	c #556373",
"'.	c #4E5E6D",
").	c #607283",
"!.	c #728394",
"~.	c #6C7B8F",
"{.	c #4E5D71",
"].	c #2B3F52",
"^.	c #91AAB8",
"/.	c #32354B",
"(.	c #545D6E",
"_.	c #4D5B6B",
":.	c #545F6D",
"<.	c #566170",
"[.	c #546270",
"}.	c #6A7C8A",
"|.	c #6F8192",
"1.	c #657586",
"2.	c #536072",
"3.	c #506071",
"4.	c #2C3E4E",
"5.	c #95ABBD",
"6.	c #35394E",
"7.	c #5D5E75",
"8.	c #596173",
"9.	c #515E6E",
"0.	c #52606D",
"a.	c #505D6B",
"b.	c #526170",
"c.	c #50606F",
"d.	c #525F71",
"e.	c #546174",
"f.	c #2D3F50",
"g.	c #93A9BA",
"h.	c #34384D",
"i.	c #7D889B",
"j.	c #546272",
"k.	c #515D6B",
"l.	c #4F5A69",
"m.	c #505B6A",
"n.	c #53616E",
"o.	c #50616D",
"p.	c #536272",
"q.	c #536070",
"r.	c #2F3E50",
"s.	c #94AABC",
"t.	c #32354D",
"u.	c #5A5A73",
"v.	c #788295",
"w.	c #7A8799",
"x.	c #545E6F",
"y.	c #545E71",
"z.	c #566074",
"A.	c #2F3E52",
"B.	c #99ACC1",
"C.	c #333552",
"D.	c #595974",
"E.	c #565E75",
"F.	c #566172",
"G.	c #576070",
"H.	c #565F70",
"I.	c #586374",
"J.	c #646E82",
"K.	c #6C778A",
"L.	c #586278",
"M.	c #4E5B70",
"N.	c #2A394F",
"O.	c #98AAC4",
"P.	c #333554",
"Q.	c #393957",
"R.	c #555D73",
"S.	c #555E6F",
"T.	c #596175",
"U.	c #596077",
"V.	c #575F78",
"W.	c #344057",
"X.	c #2D3C54",
"Y.	c #95A5BF",
"Z.	c #393B58",
"`.	c #373754",
" +	c #323A50",
".+	c #313B4E",
"++	c #333C50",
"@+	c #333C4E",
"#+	c #343A4C",
"$+	c #32384A",
"%+	c #363E52",
"&+	c #333B52",
"*+	c #343952",
"=+	c #373C58",
"-+	c #363D58",
";+	c #353F59",
">+	c #99A7C0",
",+	c #97A3B8",
"    . . + + @ @ # # $ $ % % & & * * = = - - ; ; > > , , ' ' ) ) ",
"    . . + + @ @ # # $ $ % % & & * * = = - - ; ; > > , , ' ' ) ) ",
"! ! ! ~ { { ] ] ^ ^ / / ! ! ( ( _ _ : : < < _ _ [ [ } } : : | | ",
"! ! ! ~ { { ] ] ^ ^ / / ! ! ( ( _ _ : : < < _ _ [ [ } } : : | | ",
"! ! ! 1 2 2 3 3 4 4 5 5 5 5 6 6 7 7 8 8 9 9 0 0 a a b b c c d d ",
"! ! ! 1 2 2 3 3 4 4 5 5 5 5 6 6 7 7 8 8 9 9 0 0 a a b b c c d d ",
"! ! ! e f f g g h h i i i i j j k k l l m m n n a a o o p p q q ",
"! ! ! e f f g g h h i i i i j j k k l l m m n n a a o o p p q q ",
"! ! ! r s s t t u u v v w w x x y y z z A A B B C C D D E E F F ",
"! ! ! r s s t t u u v v w w x x y y z z A A B B C C D D E E F F ",
"! ! ! G H H I I J J K K L L M M N N O O P P Q Q R R S S T T U U ",
"! ! ! G H H I I J J K K L L M M N N O O P P Q Q R R S S T T U U ",
"! ! ! V W W X X Y Y Y Y Z Z ` `  . .....+.+.@.@.#.#.y y $.$.%.%.",
"! ! ! V W W X X Y Y Y Y Z Z ` `  . .....+.+.@.@.#.#.y y $.$.%.%.",
"! ! ! &.*.*.=.=.-.-.;.;.>.>.,.,.'.'.).).!.!.~.~.w w {.{.].].^.^.",
"! ! ! &.*.*.=.=.-.-.;.;.>.>.,.,.'.'.).).!.!.~.~.w w {.{.].].^.^.",
"! ! ! /.*.*.(.(._._.:.:.<.<.[.[.'.'.}.}.|.|.1.1.2.2.3.3.4.4.5.5.",
"! ! ! /.*.*.(.(._._.:.:.<.<.[.[.'.'.}.}.|.|.1.1.2.2.3.3.4.4.5.5.",
"! ! ! 6.7.7.8.8.9.9.:.:.<.<.0.0.a.a.b.b.c.c.d.d.K K e.e.f.f.g.g.",
"! ! ! 6.7.7.8.8.9.9.:.:.<.<.0.0.a.a.b.b.c.c.d.d.K K e.e.f.f.g.g.",
"! ! ! h.W W i.i.j.j.k.k.l.l.m.m.n.n.o.o.p.p.q.q.Z Z e.e.r.r.s.s.",
"! ! ! h.W W i.i.j.j.k.k.l.l.m.m.n.n.o.o.p.p.q.q.Z Z e.e.r.r.s.s.",
"! ! ! t.u.u.v.v.w.w.x.x.>.>.>.>.;.;.n.n.9.9.9.9.y.y.z.z.A.A.B.B.",
"! ! ! t.u.u.v.v.w.w.x.x.>.>.>.>.;.;.n.n.9.9.9.9.y.y.z.z.A.A.B.B.",
"! ! ! C.D.D.E.E.2.2.F.F.G.G.H.H.Y Y I.I.J.J.K.K.L.L.M.M.N.N.O.O.",
"! ! ! C.D.D.E.E.2.2.F.F.G.G.H.H.Y Y I.I.J.J.K.K.L.L.M.M.N.N.O.O.",
"! ! ! P.Q.Q.R.R.y.y.H.H.H.H.S.S.=.=.T.T.T.T.U.U.V.V.W.W.X.X.Y.Y.",
"! ! ! P.Q.Q.R.R.y.y.H.H.H.H.S.S.=.=.T.T.T.T.U.U.V.V.W.W.X.X.Y.Y.",
"! ! ! Z.`.`. + +.+.+++++@+@+#+#+$+$+%+%+&+&+*+*+=+=+-+-+;+;+>+>+",
"! ! ! ! ! ! ! ! ! ! ! ! ! ! ! ! ! ! ! ! ! ! ! ! ! ! ! ! ! ! >+>+",
"! ! ! ! ! ! ! ! ! ! ! ! ! ! ! ! ! ! ! ! ! ! ! ! ! ! ! ! ! ! ,+,+",
"! ! ! ! ! ! ! ! ! ! ! ! ! ! ! ! ! ! ! ! ! ! ! ! ! ! ! ! ! ! ,+,+"};
