/* XPM */
static char * wall_full_but_under_xpm[] = {
"32 32 183 2",
"  	c #2D3B58",
". 	c #35395A",
"+ 	c #353456",
"@ 	c #323858",
"# 	c #313958",
"$ 	c #2F3A58",
"% 	c #2F3C5A",
"& 	c #313E5C",
"* 	c #2D3D5A",
"= 	c #2F3F5C",
"- 	c #333E5C",
"; 	c #2B3956",
"> 	c #353756",
", 	c #353454",
"' 	c #7C82A0",
") 	c #7A83A0",
"! 	c #7884A0",
"~ 	c #7886A1",
"{ 	c #7A88A3",
"] 	c #7585A0",
"^ 	c #7989A3",
"/ 	c #7987A2",
"( 	c #76819D",
"_ 	c #32405B",
": 	c #273752",
"< 	c #373956",
"[ 	c #7C7B99",
"} 	c #555C77",
"| 	c #545D75",
"1 	c #525E75",
"2 	c #526077",
"3 	c #54627B",
"4 	c #4F5F77",
"5 	c #485870",
"6 	c #505E79",
"7 	c #717F9A",
"8 	c #2C3C54",
"9 	c #3C415D",
"0 	c #80819C",
"a 	c #545B74",
"b 	c #545E73",
"c 	c #525F73",
"d 	c #536075",
"e 	c #526175",
"f 	c #505F75",
"g 	c #4C5D73",
"h 	c #506179",
"i 	c #4F5D76",
"j 	c #4E5A74",
"k 	c #74839B",
"l 	c #293C51",
"m 	c #333851",
"n 	c #595972",
"o 	c #545C72",
"p 	c #525D70",
"q 	c #515E70",
"r 	c #4E5B6E",
"s 	c #4B5A6C",
"t 	c #505F73",
"u 	c #4F6073",
"v 	c #506177",
"w 	c #4F5E74",
"x 	c #4C5872",
"y 	c #536178",
"z 	c #2D4055",
"A 	c #383E55",
"B 	c #5C5D74",
"C 	c #545C70",
"D 	c #525D6E",
"E 	c #525F6F",
"F 	c #566675",
"G 	c #546375",
"H 	c #4C5E6F",
"I 	c #4E5F72",
"J 	c #4D5B72",
"K 	c #515D74",
"L 	c #2E4254",
"M 	c #30364B",
"N 	c #5A5B71",
"O 	c #535B6D",
"P 	c #505B6C",
"Q 	c #525E6C",
"R 	c #55606E",
"S 	c #556373",
"T 	c #4E5E6D",
"U 	c #607283",
"V 	c #728394",
"W 	c #6C7B8F",
"X 	c #4E5D71",
"Y 	c #2B3F52",
"Z 	c #32354B",
"` 	c #545D6E",
" .	c #4D5B6B",
"..	c #545F6D",
"+.	c #566170",
"@.	c #546270",
"#.	c #6A7C8A",
"$.	c #6F8192",
"%.	c #657586",
"&.	c #536072",
"*.	c #506071",
"=.	c #2C3E4E",
"-.	c #35394E",
";.	c #5D5E75",
">.	c #596173",
",.	c #515E6E",
"'.	c #52606D",
").	c #505D6B",
"!.	c #526170",
"~.	c #50606F",
"{.	c #525F71",
"].	c #546174",
"^.	c #2D3F50",
"/.	c #34384D",
"(.	c #7D889B",
"_.	c #546272",
":.	c #515D6B",
"<.	c #4F5A69",
"[.	c #505B6A",
"}.	c #53616E",
"|.	c #50616D",
"1.	c #536272",
"2.	c #536070",
"3.	c #2F3E50",
"4.	c #32354D",
"5.	c #5A5A73",
"6.	c #788295",
"7.	c #7A8799",
"8.	c #545E6F",
"9.	c #545E71",
"0.	c #566074",
"a.	c #2F3E52",
"b.	c #333552",
"c.	c #595974",
"d.	c #565E75",
"e.	c #566172",
"f.	c #576070",
"g.	c #565F70",
"h.	c #586374",
"i.	c #646E82",
"j.	c #6C778A",
"k.	c #586278",
"l.	c #4E5B70",
"m.	c #2A394F",
"n.	c #333554",
"o.	c #393957",
"p.	c #555D73",
"q.	c #555E6F",
"r.	c #596175",
"s.	c #596077",
"t.	c #575F78",
"u.	c #344057",
"v.	c #2D3C54",
"w.	c #393B58",
"x.	c #373754",
"y.	c #323A50",
"z.	c #313B4E",
"A.	c #333C50",
"B.	c #333C4E",
"C.	c #343A4C",
"D.	c #32384A",
"E.	c #363E52",
"F.	c #333B52",
"G.	c #343952",
"H.	c #373C58",
"I.	c #363D58",
"J.	c #353F59",
"K.	c #9BA4BC",
"L.	c #9C9FB7",
"M.	c #A3A4BB",
"N.	c #A0A6BB",
"O.	c #9CA5B6",
"P.	c #9FA5B7",
"Q.	c #9FA5B5",
"R.	c #9FA3B4",
"S.	c #9DA1B2",
"T.	c #A1A7BA",
"U.	c #9EA4B6",
"V.	c #9FA2BA",
"W.	c #A4A7BF",
"X.	c #9BA1B8",
"Y.	c #9BA3B9",
"Z.	c #97A3B8",
"                                                                ",
"                                                                ",
"                                                                ",
"      . + + @ @ # # $ $     % % & & * * = = & & - - ; ; *       ",
"      > , , ' ' ) ) ! ! ! ! ~ ~ { { ] ] ^ ^ / / ( ( _ _ :       ",
"      > , , ' ' ) ) ! ! ! ! ~ ~ { { ] ] ^ ^ / / ( ( _ _ :       ",
"      < [ [ } } | | 1 1 1 1 2 2 3 3 4 4 5 5 6 6 ( ( 7 7 8       ",
"      < [ [ } } | | 1 1 1 1 2 2 3 3 4 4 5 5 6 6 ( ( 7 7 8       ",
"      9 0 0 a a b b c c d d e e f f g g h h i i j j k k l       ",
"      9 0 0 a a b b c c d d e e f f g g h h i i j j k k l       ",
"      m n n o o p p q q r r s s t t u u v v w w x x y y z       ",
"      m n n o o p p q q r r s s t t u u v v w w x x y y z       ",
"      A B B C C D D D D E E F F G G H H I I J J K K f f L       ",
"      A B B C C D D D D E E F F G G H H I I J J K K f f L       ",
"      M N N O O P P Q Q R R S S T T U U V V W W d d X X Y       ",
"      M N N O O P P Q Q R R S S T T U U V V W W d d X X Y       ",
"      Z N N ` `  . .....+.+.@.@.T T #.#.$.$.%.%.&.&.*.*.=.      ",
"      Z N N ` `  . .....+.+.@.@.T T #.#.$.$.%.%.&.&.*.*.=.      ",
"      -.;.;.>.>.,.,.....+.+.'.'.).).!.!.~.~.{.{.q q ].].^.      ",
"      -.;.;.>.>.,.,.....+.+.'.'.).).!.!.~.~.{.{.q q ].].^.      ",
"      /.B B (.(._._.:.:.<.<.[.[.}.}.|.|.1.1.2.2.E E ].].3.      ",
"      /.B B (.(._._.:.:.<.<.[.[.}.}.|.|.1.1.2.2.E E ].].3.      ",
"      4.5.5.6.6.7.7.8.8.R R R R Q Q }.}.,.,.,.,.9.9.0.0.a.      ",
"      4.5.5.6.6.7.7.8.8.R R R R Q Q }.}.,.,.,.,.9.9.0.0.a.      ",
"      b.c.c.d.d.&.&.e.e.f.f.g.g.D D h.h.i.i.j.j.k.k.l.l.m.      ",
"      b.c.c.d.d.&.&.e.e.f.f.g.g.D D h.h.i.i.j.j.k.k.l.l.m.      ",
"      n.o.o.p.p.9.9.g.g.g.g.q.q.O O r.r.r.r.s.s.t.t.u.u.v.      ",
"      n.o.o.p.p.9.9.g.g.g.g.q.q.O O r.r.r.r.s.s.t.t.u.u.v.      ",
"      w.x.x.y.y.z.z.A.A.B.B.C.C.D.D.E.E.F.F.G.G.H.H.I.I.J.      ",
"      w.x.x.y.y.z.z.A.A.B.B.C.C.D.D.E.E.F.F.G.G.H.H.I.I.J.      ",
"K.K.L.L.M.M.N.N.O.O.P.P.Q.Q.R.R.S.S.T.T.U.U.V.V.W.W.X.X.Y.Y.Z.Z.",
"K.K.L.L.M.M.N.N.O.O.P.P.Q.Q.R.R.S.S.T.T.U.U.V.V.W.W.X.X.Y.Y.Z.Z."};
