/* XPM */
static char * wall_empty_all_sides_xpm[] = {
"32 32 225 2",
"  	c #93A5C3",
". 	c #9A9EBF",
"+ 	c #A4A3C6",
"@ 	c #A1A5C6",
"# 	c #9BA3C2",
"$ 	c #99A4C2",
"% 	c #97A5C2",
"& 	c #99A6C4",
"* 	c #99A9C6",
"= 	c #94A6C2",
"- 	c #98A8C5",
"; 	c #9BA8C6",
"> 	c #9AA5C4",
", 	c #94A1BF",
"' 	c #95A4C1",
") 	c #93A7C2",
"! 	c #97A7C4",
"~ 	c #35395A",
"{ 	c #353456",
"] 	c #323858",
"^ 	c #313958",
"/ 	c #2F3A58",
"( 	c #2D3B58",
"_ 	c #2F3C5A",
": 	c #313E5C",
"< 	c #2D3D5A",
"[ 	c #2F3F5C",
"} 	c #333E5C",
"| 	c #2B3956",
"1 	c #96ABC6",
"2 	c #96A4C1",
"3 	c #353756",
"4 	c #353454",
"5 	c #7C82A0",
"6 	c #7A83A0",
"7 	c #7884A0",
"8 	c #7886A1",
"9 	c #7A88A3",
"0 	c #7585A0",
"a 	c #7989A3",
"b 	c #7987A2",
"c 	c #76819D",
"d 	c #32405B",
"e 	c #273752",
"f 	c #8EA5BD",
"g 	c #96A4BF",
"h 	c #373956",
"i 	c #7C7B99",
"j 	c #555C77",
"k 	c #545D75",
"l 	c #525E75",
"m 	c #526077",
"n 	c #54627B",
"o 	c #4F5F77",
"p 	c #485870",
"q 	c #505E79",
"r 	c #717F9A",
"s 	c #2C3C54",
"t 	c #93ABC1",
"u 	c #93A4BC",
"v 	c #3C415D",
"w 	c #80819C",
"x 	c #545B74",
"y 	c #545E73",
"z 	c #525F73",
"A 	c #536075",
"B 	c #526175",
"C 	c #505F75",
"D 	c #4C5D73",
"E 	c #506179",
"F 	c #4F5D76",
"G 	c #4E5A74",
"H 	c #74839B",
"I 	c #293C51",
"J 	c #93ACBF",
"K 	c #98ABC0",
"L 	c #333851",
"M 	c #595972",
"N 	c #545C72",
"O 	c #525D70",
"P 	c #515E70",
"Q 	c #4E5B6E",
"R 	c #4B5A6C",
"S 	c #505F73",
"T 	c #4F6073",
"U 	c #506177",
"V 	c #4F5E74",
"W 	c #4C5872",
"X 	c #536178",
"Y 	c #2D4055",
"Z 	c #91A9BC",
"` 	c #383E55",
" .	c #5C5D74",
"..	c #545C70",
"+.	c #525D6E",
"@.	c #525F6F",
"#.	c #566675",
"$.	c #546375",
"%.	c #4C5E6F",
"&.	c #4E5F72",
"*.	c #4D5B72",
"=.	c #515D74",
"-.	c #2E4254",
";.	c #90A8B9",
">.	c #93A7B9",
",.	c #30364B",
"'.	c #5A5B71",
").	c #535B6D",
"!.	c #505B6C",
"~.	c #525E6C",
"{.	c #55606E",
"].	c #556373",
"^.	c #4E5E6D",
"/.	c #607283",
"(.	c #728394",
"_.	c #6C7B8F",
":.	c #4E5D71",
"<.	c #2B3F52",
"[.	c #91AAB8",
"}.	c #32354B",
"|.	c #545D6E",
"1.	c #4D5B6B",
"2.	c #545F6D",
"3.	c #566170",
"4.	c #546270",
"5.	c #6A7C8A",
"6.	c #6F8192",
"7.	c #657586",
"8.	c #536072",
"9.	c #506071",
"0.	c #2C3E4E",
"a.	c #95ABBD",
"b.	c #97AABD",
"c.	c #35394E",
"d.	c #5D5E75",
"e.	c #596173",
"f.	c #515E6E",
"g.	c #52606D",
"h.	c #505D6B",
"i.	c #526170",
"j.	c #50606F",
"k.	c #525F71",
"l.	c #546174",
"m.	c #2D3F50",
"n.	c #93A9BA",
"o.	c #95A9BC",
"p.	c #34384D",
"q.	c #7D889B",
"r.	c #546272",
"s.	c #515D6B",
"t.	c #4F5A69",
"u.	c #505B6A",
"v.	c #53616E",
"w.	c #50616D",
"x.	c #536272",
"y.	c #536070",
"z.	c #2F3E50",
"A.	c #94AABC",
"B.	c #98A9BF",
"C.	c #32354D",
"D.	c #5A5A73",
"E.	c #788295",
"F.	c #7A8799",
"G.	c #545E6F",
"H.	c #545E71",
"I.	c #566074",
"J.	c #2F3E52",
"K.	c #99ACC1",
"L.	c #9AA8C1",
"M.	c #333552",
"N.	c #595974",
"O.	c #565E75",
"P.	c #566172",
"Q.	c #576070",
"R.	c #565F70",
"S.	c #586374",
"T.	c #646E82",
"U.	c #6C778A",
"V.	c #586278",
"W.	c #4E5B70",
"X.	c #2A394F",
"Y.	c #98AAC4",
"Z.	c #96A1BD",
"`.	c #333554",
" +	c #393957",
".+	c #555D73",
"++	c #555E6F",
"@+	c #596175",
"#+	c #596077",
"$+	c #575F78",
"%+	c #344057",
"&+	c #2D3C54",
"*+	c #95A5BF",
"=+	c #97A2BE",
"-+	c #393B58",
";+	c #373754",
">+	c #323A50",
",+	c #313B4E",
"'+	c #333C50",
")+	c #333C4E",
"!+	c #343A4C",
"~+	c #32384A",
"{+	c #363E52",
"]+	c #333B52",
"^+	c #343952",
"/+	c #373C58",
"(+	c #363D58",
"_+	c #353F59",
":+	c #99A7C0",
"<+	c #9BA4BC",
"[+	c #9C9FB7",
"}+	c #A3A4BB",
"|+	c #A0A6BB",
"1+	c #9CA5B6",
"2+	c #9FA5B7",
"3+	c #9FA5B5",
"4+	c #9FA3B4",
"5+	c #9DA1B2",
"6+	c #A1A7BA",
"7+	c #9EA4B6",
"8+	c #9FA2BA",
"9+	c #A4A7BF",
"0+	c #9BA1B8",
"a+	c #9BA3B9",
"b+	c #97A3B8",
"    . . + + @ @ # # $ $ % % & & * * = = - - ; ; > > , , ' ' ) ) ",
"    . . + + @ @ # # $ $ % % & & * * = = - - ; ; > > , , ' ' ) ) ",
"! ! ~ ~ { { ] ] ^ ^ / / ( ( _ _ : : < < [ [ : : } } | | < < 1 1 ",
"! ! ~ ~ { { ] ] ^ ^ / / ( ( _ _ : : < < [ [ : : } } | | < < 1 1 ",
"2 2 3 3 4 4 5 5 6 6 7 7 7 7 8 8 9 9 0 0 a a b b c c d d e e f f ",
"2 2 3 3 4 4 5 5 6 6 7 7 7 7 8 8 9 9 0 0 a a b b c c d d e e f f ",
"g g h h i i j j k k l l l l m m n n o o p p q q c c r r s s t t ",
"g g h h i i j j k k l l l l m m n n o o p p q q c c r r s s t t ",
"u u v v w w x x y y z z A A B B C C D D E E F F G G H H I I J J ",
"u u v v w w x x y y z z A A B B C C D D E E F F G G H H I I J J ",
"K K L L M M N N O O P P Q Q R R S S T T U U V V W W X X Y Y Z Z ",
"K K L L M M N N O O P P Q Q R R S S T T U U V V W W X X Y Y Z Z ",
"K K ` `  . .....+.+.+.+.@.@.#.#.$.$.%.%.&.&.*.*.=.=.C C -.-.;.;.",
"K K ` `  . .....+.+.+.+.@.@.#.#.$.$.%.%.&.&.*.*.=.=.C C -.-.;.;.",
">.>.,.,.'.'.).).!.!.~.~.{.{.].].^.^././.(.(._._.A A :.:.<.<.[.[.",
">.>.,.,.'.'.).).!.!.~.~.{.{.].].^.^././.(.(._._.A A :.:.<.<.[.[.",
">.>.}.}.'.'.|.|.1.1.2.2.3.3.4.4.^.^.5.5.6.6.7.7.8.8.9.9.0.0.a.a.",
">.>.}.}.'.'.|.|.1.1.2.2.3.3.4.4.^.^.5.5.6.6.7.7.8.8.9.9.0.0.a.a.",
"b.b.c.c.d.d.e.e.f.f.2.2.3.3.g.g.h.h.i.i.j.j.k.k.P P l.l.m.m.n.n.",
"b.b.c.c.d.d.e.e.f.f.2.2.3.3.g.g.h.h.i.i.j.j.k.k.P P l.l.m.m.n.n.",
"o.o.p.p. . .q.q.r.r.s.s.t.t.u.u.v.v.w.w.x.x.y.y.@.@.l.l.z.z.A.A.",
"o.o.p.p. . .q.q.r.r.s.s.t.t.u.u.v.v.w.w.x.x.y.y.@.@.l.l.z.z.A.A.",
"B.B.C.C.D.D.E.E.F.F.G.G.{.{.{.{.~.~.v.v.f.f.f.f.H.H.I.I.J.J.K.K.",
"B.B.C.C.D.D.E.E.F.F.G.G.{.{.{.{.~.~.v.v.f.f.f.f.H.H.I.I.J.J.K.K.",
"L.L.M.M.N.N.O.O.8.8.P.P.Q.Q.R.R.+.+.S.S.T.T.U.U.V.V.W.W.X.X.Y.Y.",
"L.L.M.M.N.N.O.O.8.8.P.P.Q.Q.R.R.+.+.S.S.T.T.U.U.V.V.W.W.X.X.Y.Y.",
"Z.Z.`.`. + +.+.+H.H.R.R.R.R.++++).).@+@+@+@+#+#+$+$+%+%+&+&+*+*+",
"Z.Z.`.`. + +.+.+H.H.R.R.R.R.++++).).@+@+@+@+#+#+$+$+%+%+&+&+*+*+",
"=+=+-+-+;+;+>+>+,+,+'+'+)+)+!+!+~+~+{+{+]+]+^+^+/+/+(+(+_+_+:+:+",
"=+=+-+-+;+;+>+>+,+,+'+'+)+)+!+!+~+~+{+{+]+]+^+^+/+/+(+(+_+_+:+:+",
"<+<+[+[+}+}+|+|+1+1+2+2+3+3+4+4+5+5+6+6+7+7+8+8+9+9+0+0+a+a+b+b+",
"<+<+[+[+}+}+|+|+1+1+2+2+3+3+4+4+5+5+6+6+7+7+8+8+9+9+0+0+a+a+b+b+"};
