/* XPM */
static char * wall_full_but_top_down_xpm[] = {
"32 32 199 2",
"  	c #93A5C3",
". 	c #9A9EBF",
"+ 	c #A4A3C6",
"@ 	c #A1A5C6",
"# 	c #9BA3C2",
"$ 	c #99A4C2",
"% 	c #97A5C2",
"& 	c #99A6C4",
"* 	c #99A9C6",
"= 	c #94A6C2",
"- 	c #98A8C5",
"; 	c #9BA8C6",
"> 	c #9AA5C4",
", 	c #94A1BF",
"' 	c #95A4C1",
") 	c #93A7C2",
"! 	c #2D3B58",
"~ 	c #35395A",
"{ 	c #353456",
"] 	c #323858",
"^ 	c #313958",
"/ 	c #2F3A58",
"( 	c #2F3C5A",
"_ 	c #313E5C",
": 	c #2D3D5A",
"< 	c #2F3F5C",
"[ 	c #333E5C",
"} 	c #2B3956",
"| 	c #353756",
"1 	c #353454",
"2 	c #7C82A0",
"3 	c #7A83A0",
"4 	c #7884A0",
"5 	c #7886A1",
"6 	c #7A88A3",
"7 	c #7585A0",
"8 	c #7989A3",
"9 	c #7987A2",
"0 	c #76819D",
"a 	c #32405B",
"b 	c #273752",
"c 	c #373956",
"d 	c #7C7B99",
"e 	c #555C77",
"f 	c #545D75",
"g 	c #525E75",
"h 	c #526077",
"i 	c #54627B",
"j 	c #4F5F77",
"k 	c #485870",
"l 	c #505E79",
"m 	c #717F9A",
"n 	c #2C3C54",
"o 	c #3C415D",
"p 	c #80819C",
"q 	c #545B74",
"r 	c #545E73",
"s 	c #525F73",
"t 	c #536075",
"u 	c #526175",
"v 	c #505F75",
"w 	c #4C5D73",
"x 	c #506179",
"y 	c #4F5D76",
"z 	c #4E5A74",
"A 	c #74839B",
"B 	c #293C51",
"C 	c #333851",
"D 	c #595972",
"E 	c #545C72",
"F 	c #525D70",
"G 	c #515E70",
"H 	c #4E5B6E",
"I 	c #4B5A6C",
"J 	c #505F73",
"K 	c #4F6073",
"L 	c #506177",
"M 	c #4F5E74",
"N 	c #4C5872",
"O 	c #536178",
"P 	c #2D4055",
"Q 	c #383E55",
"R 	c #5C5D74",
"S 	c #545C70",
"T 	c #525D6E",
"U 	c #525F6F",
"V 	c #566675",
"W 	c #546375",
"X 	c #4C5E6F",
"Y 	c #4E5F72",
"Z 	c #4D5B72",
"` 	c #515D74",
" .	c #2E4254",
"..	c #30364B",
"+.	c #5A5B71",
"@.	c #535B6D",
"#.	c #505B6C",
"$.	c #525E6C",
"%.	c #55606E",
"&.	c #556373",
"*.	c #4E5E6D",
"=.	c #607283",
"-.	c #728394",
";.	c #6C7B8F",
">.	c #4E5D71",
",.	c #2B3F52",
"'.	c #32354B",
").	c #545D6E",
"!.	c #4D5B6B",
"~.	c #545F6D",
"{.	c #566170",
"].	c #546270",
"^.	c #6A7C8A",
"/.	c #6F8192",
"(.	c #657586",
"_.	c #536072",
":.	c #506071",
"<.	c #2C3E4E",
"[.	c #35394E",
"}.	c #5D5E75",
"|.	c #596173",
"1.	c #515E6E",
"2.	c #52606D",
"3.	c #505D6B",
"4.	c #526170",
"5.	c #50606F",
"6.	c #525F71",
"7.	c #546174",
"8.	c #2D3F50",
"9.	c #34384D",
"0.	c #7D889B",
"a.	c #546272",
"b.	c #515D6B",
"c.	c #4F5A69",
"d.	c #505B6A",
"e.	c #53616E",
"f.	c #50616D",
"g.	c #536272",
"h.	c #536070",
"i.	c #2F3E50",
"j.	c #32354D",
"k.	c #5A5A73",
"l.	c #788295",
"m.	c #7A8799",
"n.	c #545E6F",
"o.	c #545E71",
"p.	c #566074",
"q.	c #2F3E52",
"r.	c #333552",
"s.	c #595974",
"t.	c #565E75",
"u.	c #566172",
"v.	c #576070",
"w.	c #565F70",
"x.	c #586374",
"y.	c #646E82",
"z.	c #6C778A",
"A.	c #586278",
"B.	c #4E5B70",
"C.	c #2A394F",
"D.	c #333554",
"E.	c #393957",
"F.	c #555D73",
"G.	c #555E6F",
"H.	c #596175",
"I.	c #596077",
"J.	c #575F78",
"K.	c #344057",
"L.	c #2D3C54",
"M.	c #393B58",
"N.	c #373754",
"O.	c #323A50",
"P.	c #313B4E",
"Q.	c #333C50",
"R.	c #333C4E",
"S.	c #343A4C",
"T.	c #32384A",
"U.	c #363E52",
"V.	c #333B52",
"W.	c #343952",
"X.	c #373C58",
"Y.	c #363D58",
"Z.	c #353F59",
"`.	c #9BA4BC",
" +	c #9C9FB7",
".+	c #A3A4BB",
"++	c #A0A6BB",
"@+	c #9CA5B6",
"#+	c #9FA5B7",
"$+	c #9FA5B5",
"%+	c #9FA3B4",
"&+	c #9DA1B2",
"*+	c #A1A7BA",
"=+	c #9EA4B6",
"-+	c #9FA2BA",
";+	c #A4A7BF",
">+	c #9BA1B8",
",+	c #9BA3B9",
"'+	c #97A3B8",
"    . . + + @ @ # # $ $ % % & & * * = = - - ; ; > > , , ' ' ) ) ",
"    . . + + @ @ # # $ $ % % & & * * = = - - ; ; > > , , ' ' ) ) ",
"! ! ~ ~ { { ] ] ^ ^ / / ! ! ( ( _ _ : : < < _ _ [ [ } } : : ! ! ",
"! ! ~ ~ { { ] ] ^ ^ / / ! ! ( ( _ _ : : < < _ _ [ [ } } : : ! ! ",
"! ! | | 1 1 2 2 3 3 4 4 4 4 5 5 6 6 7 7 8 8 9 9 0 0 a a b b ! ! ",
"! ! | | 1 1 2 2 3 3 4 4 4 4 5 5 6 6 7 7 8 8 9 9 0 0 a a b b ! ! ",
"! ! c c d d e e f f g g g g h h i i j j k k l l 0 0 m m n n ! ! ",
"! ! c c d d e e f f g g g g h h i i j j k k l l 0 0 m m n n ! ! ",
"! ! o o p p q q r r s s t t u u v v w w x x y y z z A A B B ! ! ",
"! ! o o p p q q r r s s t t u u v v w w x x y y z z A A B B ! ! ",
"! ! C C D D E E F F G G H H I I J J K K L L M M N N O O P P ! ! ",
"! ! C C D D E E F F G G H H I I J J K K L L M M N N O O P P ! ! ",
"! ! Q Q R R S S T T T T U U V V W W X X Y Y Z Z ` ` v v  . .! ! ",
"! ! Q Q R R S S T T T T U U V V W W X X Y Y Z Z ` ` v v  . .! ! ",
"! ! ....+.+.@.@.#.#.$.$.%.%.&.&.*.*.=.=.-.-.;.;.t t >.>.,.,.! ! ",
"! ! ....+.+.@.@.#.#.$.$.%.%.&.&.*.*.=.=.-.-.;.;.t t >.>.,.,.! ! ",
"! ! '.'.+.+.).).!.!.~.~.{.{.].].*.*.^.^././.(.(._._.:.:.<.<.! ! ",
"! ! '.'.+.+.).).!.!.~.~.{.{.].].*.*.^.^././.(.(._._.:.:.<.<.! ! ",
"! ! [.[.}.}.|.|.1.1.~.~.{.{.2.2.3.3.4.4.5.5.6.6.G G 7.7.8.8.! ! ",
"! ! [.[.}.}.|.|.1.1.~.~.{.{.2.2.3.3.4.4.5.5.6.6.G G 7.7.8.8.! ! ",
"! ! 9.9.R R 0.0.a.a.b.b.c.c.d.d.e.e.f.f.g.g.h.h.U U 7.7.i.i.! ! ",
"! ! 9.9.R R 0.0.a.a.b.b.c.c.d.d.e.e.f.f.g.g.h.h.U U 7.7.i.i.! ! ",
"! ! j.j.k.k.l.l.m.m.n.n.%.%.%.%.$.$.e.e.1.1.1.1.o.o.p.p.q.q.! ! ",
"! ! j.j.k.k.l.l.m.m.n.n.%.%.%.%.$.$.e.e.1.1.1.1.o.o.p.p.q.q.! ! ",
"! ! r.r.s.s.t.t._._.u.u.v.v.w.w.T T x.x.y.y.z.z.A.A.B.B.C.C.! ! ",
"! ! r.r.s.s.t.t._._.u.u.v.v.w.w.T T x.x.y.y.z.z.A.A.B.B.C.C.! ! ",
"! ! D.D.E.E.F.F.o.o.w.w.w.w.G.G.@.@.H.H.H.H.I.I.J.J.K.K.L.L.! ! ",
"! ! D.D.E.E.F.F.o.o.w.w.w.w.G.G.@.@.H.H.H.H.I.I.J.J.K.K.L.L.! ! ",
"! ! M.M.N.N.O.O.P.P.Q.Q.R.R.S.S.T.T.U.U.V.V.W.W.X.X.Y.Y.Z.Z.! ! ",
"! ! M.M.N.N.O.O.P.P.Q.Q.R.R.S.S.T.T.U.U.V.V.W.W.X.X.Y.Y.Z.Z.! ! ",
"`.`. + +.+.+++++@+@+#+#+$+$+%+%+&+&+*+*+=+=+-+-+;+;+>+>+,+,+'+'+",
"`.`. + +.+.+++++@+@+#+#+$+$+%+%+&+&+*+*+=+=+-+-+;+;+>+>+,+,+'+'+"};
