/* XPM */
static char * wall_full_but_right_xpm[] = {
"32 32 183 2",
"  	c #2D3B58",
". 	c #93A7C2",
"+ 	c #96ABC6",
"@ 	c #35395A",
"# 	c #353456",
"$ 	c #323858",
"% 	c #313958",
"& 	c #2F3A58",
"* 	c #2F3C5A",
"= 	c #313E5C",
"- 	c #2D3D5A",
"; 	c #2F3F5C",
"> 	c #333E5C",
", 	c #2B3956",
"' 	c #353756",
") 	c #353454",
"! 	c #7C82A0",
"~ 	c #7A83A0",
"{ 	c #7884A0",
"] 	c #7886A1",
"^ 	c #7A88A3",
"/ 	c #7585A0",
"( 	c #7989A3",
"_ 	c #7987A2",
": 	c #76819D",
"< 	c #32405B",
"[ 	c #273752",
"} 	c #8EA5BD",
"| 	c #373956",
"1 	c #7C7B99",
"2 	c #555C77",
"3 	c #545D75",
"4 	c #525E75",
"5 	c #526077",
"6 	c #54627B",
"7 	c #4F5F77",
"8 	c #485870",
"9 	c #505E79",
"0 	c #717F9A",
"a 	c #2C3C54",
"b 	c #93ABC1",
"c 	c #3C415D",
"d 	c #80819C",
"e 	c #545B74",
"f 	c #545E73",
"g 	c #525F73",
"h 	c #536075",
"i 	c #526175",
"j 	c #505F75",
"k 	c #4C5D73",
"l 	c #506179",
"m 	c #4F5D76",
"n 	c #4E5A74",
"o 	c #74839B",
"p 	c #293C51",
"q 	c #93ACBF",
"r 	c #333851",
"s 	c #595972",
"t 	c #545C72",
"u 	c #525D70",
"v 	c #515E70",
"w 	c #4E5B6E",
"x 	c #4B5A6C",
"y 	c #505F73",
"z 	c #4F6073",
"A 	c #506177",
"B 	c #4F5E74",
"C 	c #4C5872",
"D 	c #536178",
"E 	c #2D4055",
"F 	c #91A9BC",
"G 	c #383E55",
"H 	c #5C5D74",
"I 	c #545C70",
"J 	c #525D6E",
"K 	c #525F6F",
"L 	c #566675",
"M 	c #546375",
"N 	c #4C5E6F",
"O 	c #4E5F72",
"P 	c #4D5B72",
"Q 	c #515D74",
"R 	c #2E4254",
"S 	c #90A8B9",
"T 	c #30364B",
"U 	c #5A5B71",
"V 	c #535B6D",
"W 	c #505B6C",
"X 	c #525E6C",
"Y 	c #55606E",
"Z 	c #556373",
"` 	c #4E5E6D",
" .	c #607283",
"..	c #728394",
"+.	c #6C7B8F",
"@.	c #4E5D71",
"#.	c #2B3F52",
"$.	c #91AAB8",
"%.	c #32354B",
"&.	c #545D6E",
"*.	c #4D5B6B",
"=.	c #545F6D",
"-.	c #566170",
";.	c #546270",
">.	c #6A7C8A",
",.	c #6F8192",
"'.	c #657586",
").	c #536072",
"!.	c #506071",
"~.	c #2C3E4E",
"{.	c #95ABBD",
"].	c #35394E",
"^.	c #5D5E75",
"/.	c #596173",
"(.	c #515E6E",
"_.	c #52606D",
":.	c #505D6B",
"<.	c #526170",
"[.	c #50606F",
"}.	c #525F71",
"|.	c #546174",
"1.	c #2D3F50",
"2.	c #93A9BA",
"3.	c #34384D",
"4.	c #7D889B",
"5.	c #546272",
"6.	c #515D6B",
"7.	c #4F5A69",
"8.	c #505B6A",
"9.	c #53616E",
"0.	c #50616D",
"a.	c #536272",
"b.	c #536070",
"c.	c #2F3E50",
"d.	c #94AABC",
"e.	c #32354D",
"f.	c #5A5A73",
"g.	c #788295",
"h.	c #7A8799",
"i.	c #545E6F",
"j.	c #545E71",
"k.	c #566074",
"l.	c #2F3E52",
"m.	c #99ACC1",
"n.	c #333552",
"o.	c #595974",
"p.	c #565E75",
"q.	c #566172",
"r.	c #576070",
"s.	c #565F70",
"t.	c #586374",
"u.	c #646E82",
"v.	c #6C778A",
"w.	c #586278",
"x.	c #4E5B70",
"y.	c #2A394F",
"z.	c #98AAC4",
"A.	c #333554",
"B.	c #393957",
"C.	c #555D73",
"D.	c #555E6F",
"E.	c #596175",
"F.	c #596077",
"G.	c #575F78",
"H.	c #344057",
"I.	c #2D3C54",
"J.	c #95A5BF",
"K.	c #393B58",
"L.	c #373754",
"M.	c #323A50",
"N.	c #313B4E",
"O.	c #333C50",
"P.	c #333C4E",
"Q.	c #343A4C",
"R.	c #32384A",
"S.	c #363E52",
"T.	c #333B52",
"U.	c #343952",
"V.	c #373C58",
"W.	c #363D58",
"X.	c #353F59",
"Y.	c #99A7C0",
"Z.	c #97A3B8",
"                                                            . . ",
"                                                            . . ",
"                                                            + + ",
"      @ # # $ $ % % & &     * * = = - - ; ; = = > > , , - - + + ",
"      ' ) ) ! ! ~ ~ { { { { ] ] ^ ^ / / ( ( _ _ : : < < [ [ } } ",
"      ' ) ) ! ! ~ ~ { { { { ] ] ^ ^ / / ( ( _ _ : : < < [ [ } } ",
"      | 1 1 2 2 3 3 4 4 4 4 5 5 6 6 7 7 8 8 9 9 : : 0 0 a a b b ",
"      | 1 1 2 2 3 3 4 4 4 4 5 5 6 6 7 7 8 8 9 9 : : 0 0 a a b b ",
"      c d d e e f f g g h h i i j j k k l l m m n n o o p p q q ",
"      c d d e e f f g g h h i i j j k k l l m m n n o o p p q q ",
"      r s s t t u u v v w w x x y y z z A A B B C C D D E E F F ",
"      r s s t t u u v v w w x x y y z z A A B B C C D D E E F F ",
"      G H H I I J J J J K K L L M M N N O O P P Q Q j j R R S S ",
"      G H H I I J J J J K K L L M M N N O O P P Q Q j j R R S S ",
"      T U U V V W W X X Y Y Z Z ` `  . .....+.+.h h @.@.#.#.$.$.",
"      T U U V V W W X X Y Y Z Z ` `  . .....+.+.h h @.@.#.#.$.$.",
"      %.U U &.&.*.*.=.=.-.-.;.;.` ` >.>.,.,.'.'.).).!.!.~.~.{.{.",
"      %.U U &.&.*.*.=.=.-.-.;.;.` ` >.>.,.,.'.'.).).!.!.~.~.{.{.",
"      ].^.^././.(.(.=.=.-.-._._.:.:.<.<.[.[.}.}.v v |.|.1.1.2.2.",
"      ].^.^././.(.(.=.=.-.-._._.:.:.<.<.[.[.}.}.v v |.|.1.1.2.2.",
"      3.H H 4.4.5.5.6.6.7.7.8.8.9.9.0.0.a.a.b.b.K K |.|.c.c.d.d.",
"      3.H H 4.4.5.5.6.6.7.7.8.8.9.9.0.0.a.a.b.b.K K |.|.c.c.d.d.",
"      e.f.f.g.g.h.h.i.i.Y Y Y Y X X 9.9.(.(.(.(.j.j.k.k.l.l.m.m.",
"      e.f.f.g.g.h.h.i.i.Y Y Y Y X X 9.9.(.(.(.(.j.j.k.k.l.l.m.m.",
"      n.o.o.p.p.).).q.q.r.r.s.s.J J t.t.u.u.v.v.w.w.x.x.y.y.z.z.",
"      n.o.o.p.p.).).q.q.r.r.s.s.J J t.t.u.u.v.v.w.w.x.x.y.y.z.z.",
"      A.B.B.C.C.j.j.s.s.s.s.D.D.V V E.E.E.E.F.F.G.G.H.H.I.I.J.J.",
"      A.B.B.C.C.j.j.s.s.s.s.D.D.V V E.E.E.E.F.F.G.G.H.H.I.I.J.J.",
"      K.L.L.M.M.N.N.O.O.P.P.Q.Q.R.R.S.S.T.T.U.U.V.V.W.W.X.X.Y.Y.",
"                                                            Y.Y.",
"                                                            Z.Z.",
"                                                            Z.Z."};
